<?xml version="1.0" standalone="no"?>
<!DOCTYPE svg PUBLIC "-//W3C//DTD SVG 20010904//EN"
 "http://www.w3.org/TR/2001/REC-SVG-20010904/DTD/svg10.dtd">
<svg version="1.0" xmlns="http://www.w3.org/2000/svg"
 width="400.000000pt" height="400.000000pt" viewBox="0 0 400.000000 400.000000"
 preserveAspectRatio="xMidYMid meet">
<metadata>
Created by potrace 1.11, written by Peter Selinger 2001-2013
</metadata>
<g transform="translate(0.000000,400.000000) scale(0.100000,-0.100000)"
fill="#000000" stroke="none">
<path d="M1703 3984 c-445 -71 -837 -273 -1143 -590 -270 -280 -443 -608 -526
-997 -35 -166 -45 -502 -20 -675 49 -332 164 -618 366 -905 84 -120 317 -353
437 -437 284 -199 572 -316 895 -364 140 -21 436 -21 576 0 323 48 611 165
895 364 120 84 353 317 437 437 202 287 317 573 366 905 25 173 15 509 -20
675 -86 405 -262 731 -550 1019 -288 288 -614 463 -1019 550 -108 23 -149 27
-362 30 -178 2 -264 -1 -332 -12z m27 -329 c-13 -14 -47 -40 -74 -57 -28 -18
-80 -55 -115 -82 -36 -28 -101 -76 -145 -106 -56 -38 -96 -75 -129 -120 -27
-36 -104 -121 -171 -190 -127 -129 -156 -169 -156 -216 0 -42 47 -113 96 -144
l45 -28 133 5 c141 6 153 4 426 -62 378 -91 521 -301 409 -602 -30 -79 -72
-120 -198 -192 -129 -73 -206 -139 -244 -209 -15 -27 -38 -96 -51 -153 -46
-198 -49 -233 -40 -368 15 -208 12 -337 -8 -357 -11 -11 -25 -15 -42 -10 -56
14 -258 234 -313 340 -19 37 -79 341 -88 446 -13 155 -20 169 -139 250 -137
93 -176 149 -176 253 0 82 21 150 81 265 78 148 66 207 -49 247 -52 18 -232
45 -304 45 -26 0 -49 4 -52 8 -7 12 55 147 111 242 184 310 480 567 811 707
98 41 340 112 386 113 18 0 18 -2 -4 -25z m925 -90 c532 -223 919 -708 1021
-1280 62 -348 -6 -770 -173 -1075 -50 -92 -141 -230 -151 -230 -15 0 -40 33
-61 80 -29 63 -27 141 4 224 43 113 59 232 59 436 1 204 -11 277 -66 399 -58
130 -103 164 -232 175 -158 12 -263 92 -348 263 -39 79 -43 93 -43 162 0 105
29 161 152 292 125 134 143 178 106 256 -27 59 -49 61 -158 19 -126 -48 -165
-48 -215 2 -41 40 -58 85 -66 172 -5 50 -3 60 26 103 18 26 33 47 35 47 2 0
51 -20 110 -45z m0 -2855 c98 -14 189 -48 237 -89 l41 -35 -23 -18 c-41 -33
-183 -106 -287 -147 -348 -138 -736 -157 -1091 -55 l-53 16 38 27 c21 15 44
35 52 45 22 27 61 43 121 51 99 12 331 75 465 126 222 86 330 103 500 79z"/>
</g>
</svg>
