<svg xmlns="http://www.w3.org/2000/svg" width="100%" height="100%" viewBox="0 0 640 480"><path fill="#244AA5" d="M0 0v480h640V0H0zm412.92 100l6.467-19.9 6.466 19.9h20.924l-16.928 12.385 6.46 19.987-16.93-12.31-16.93 12.275 6.465-19.946-16.92-12.39h20.923zm-65.918-11l6.466-19.9 6.466 19.9h20.926l-16.93 12.094 6.467 19.694-16.928-12.27-16.93 12.353 6.46-19.79L326.07 89H347zm-66.936 0l6.466-19.9 6.466 19.9h20.925l-16.928 12.094 6.466 19.694-16.92-12.27-16.93 12.353 6.47-19.79L259.14 89h20.926zm-65.92 11l6.467-19.9 6.466 19.9H248l-16.928 12.386 6.466 19.986-16.927-12.31-16.92 12.275 6.465-19.946L193.22 100h20.926zm-39.503 55.272l-16.928-12.304-16.928 12.29 6.466-19.92L130.323 123h20.926l6.46-19.9 6.462 19.9H185.1l-16.927 12.336 6.465 19.936zm284.883 109.476c-.73 0-.973.336-1.094.896-.122.56-1.217.785-1.217.785l-1.094-.23s-.73 0-1.09.45c-.36.45-1.09 1.34-.602 2.12.485.785.485 1.23 0 1.568-.487.336-.73 2.017-1.217 1.68-.485-.335-1.095.113-1.58.337-.487.225-.365 1.792.607 2.352s1.214 1.344 1.214 1.344l1.095 1.68s-.366.336-.61.896-.972 1.68-.242 1.903c.73.223.366 1.455-.365 1.455-.73 0-1.58-.337-1.7.56-.123.896-.487.672-1.217.56-.73-.11-2.552-.56-3.04.336-.486.896-.606 1.23-1.46 1.12s-.484 1.344-.24 1.903 1.095 1.343 1.095 1.343.728.56.728 1.68-.486 1.01-.973.227c-.488-.785-1.46-.674-1.58.222-.125.894-.246 2.24-1.098 2.24s-1.218.223-1.583.67c-.366.447-.974 1.23-.974 1.68s-.12.895-.73 1.006c-.606.11-.727 1.344-.727 1.344s-1.46.222-1.58.782.12 1.454-1.094 1.565c-1.216.114-1.945.897-2.31 1.458-.366.56-.487 1.01 0 1.57.485.56.85 2.352 1.458 2.69.61.335 1.097.445.975 1.342-.12.896-.85 1.57.12 1.57s1.58.225 1.214 1.01c-.363.782-.363.894-1.092 1.23-.73.335-1.094.335-1.094 1.23s.24.896-.368 1.23c-.607.338-.607.786-.607 1.458s-.243.45-.974 1.23c-.73.785-1.703.785-2.31.563-.61-.223-.73-.223-.85-.894-.125-.672-1.22-.672-1.827-.56s-1.46.784-1.46.784-1.094.67-.606 1.23c.483.56.24 1.456-.61 1.345-.85-.113-2.798.896-3.407-.113-.605-1.007-2.31-1.68-2.552-.335s.73 1.23.61 2.575c-.12 1.345-.364 1.345-.85 1.79-.49.45-.49.786-.61 1.347-.12.56-.24 1.79.61 2.236.85.45 1.215 1.68 1.215 2.354s0 1.344.85 1.344c.853 0 1.582-.11 1.704-.895.12-.788 1.82-1.235 1.943.333s.12 2.35.728 3.022c.61.673 1.098 1.57 1.58 1.904.49.335 1.31 3.19 1.31 3.19-1.185.252-1.49 1.792-2.25 2.1-.424.17-.88.03-1.273.31-.304.224-.304.644-.73.84-.882.392-.728-.98-1.792-.477-.974.45-1.064 1.57-2.463 1.093-.73-.25-1.184-3.106-1.396-3.78-.122-.39-.882-1.566-1.125-1.93-.82-1.23-2.464 0-2.98-.36-.82-.56-.457-1.515-1.7-1.626-2.525-.17-.73 1.54-1.796 1.93-2.037.73-2.037-1.903-3.558-.7-.578.45.91.73.547 1.514-.305.644-1.794 1.623-1.703 2.38.127 1.035 1.25 1.344 1.58 2.212.918 2.296-.602 3.89-2.882 2.1-1.278-1.01-1.52-2.883-3.497-2.743-.455.026-.605.502-1.06.56-.457.026-.823-.42-1.31-.28-.728.25-.09.755-.243 1.175 0 0-.972.81-1.124 1.037-.55.73-.366 1.37-1.157 1.96-.67.502-1.186.194-1.915.98-.76.81-.82 2.015-1.793 2.8-.487.39-.822-1.178-1.43-.14-.092.14-.183.28-.242.42-.15.31-.182.45-.03.782 1.277 2.465-1.396 3.39-2.22 5.124-.364.73.64 1.4.244 1.96-.274.42-1.46 1.57-1.55 1.82-.09.25-.215.81-.427 1.006-.214.225-.943.113-1.004.45-.06.394.76.7.973.95.27.31-.123.73-.03.815 1.366 1.37.547.95 1.246 2.154.09.17.516-.14.67.31.15.417-.336.39-.154.865.03.14 1.004 1.4 1.004 1.427.06.42-1.854 1.29-2.28 1.29-1.154.028 1.005-2.38-.88-2.38-.82 0-.88 1.876-1.094 2.07-.09.086-.85 0-1.033 0-1.215 0-2.006 1.514-2.492 1.654-.3.11-.97-.17-1.49-.084-.482.08-1.06.56-1.52.56-.3 0-.452-.2-.7-.338-.543-.31-1.55-.45-2.153-.644-.337-.112-.975.42-1.188.28-.398-.253.27-.953-.64-1.456-.124-.06-.79-1.68-.76-1.767.303-1.062.636-2.21.485-3.33-.185-1.146-1.98-2.128-2.465-3.05-.366-.7-.7-2.55-1.4-3.025-.76-.506-1.46-1.485-1.853-2.24-.12-.226.244-.617-.03-1.01-.304-.42-.88-.59-1.033-1.15-.12-.446 0-1.902-.517-2.21-.576-.335-4.287-.783-5.198-.867-.49-.026-.855-.026-1.22-.39-.15-.14-.395-.73-.516-.73-.362-.027-.79.168-1.152.197-.272.03-.728-.165-.972 0-1.185.815-1.49 1.85-2.613 2.718-1.156.87-2.43.84-3.587 1.85-.73.645-1.216 2.185-1.945 2.91-.304.31-.79 0-.91.14-.61.76-1.46 1.208-2.07 1.908-.12.14-.09.42-.244.534l-1.31.335c-.33.052-.97-.03-1.243.052-.604.196-.574.84-2.642 1.26-.15.03-.426.168-.547.252-.244.17-.426.42-.67.587-.15.114-.607-.082-.88-.054-.52.083-.82.53-1.31.587-1.093.14-2.856-.505-3.71-.168-.515.194-1.943 1.79-2.46 1.958-.334.113-.577-.026-.94-.167-.185.225-.61 1.96-.76 2.354 0 .025-2.343 1.985-2.524 2.21-.304.336-.426.7-.79 1.064-.243.25-.64.477-1.034.477-.49 0-1.22-.363-1.676-.45-.88-.14-3.525-.25-4.315-.08-.82.167-.58 2.52-2.617 2.743-1.187.14-2.28.362-3.497.476-.12 0-.97-.504-1.7-.31-.27.085-1.273.98-1.273 1.26v.505c0 .083.362.392.332.42-.458.53-1.43 1.37-1.766 1.987-.09.165-.185.36-.337.474-.272.195-1.656.73-1.78.98-.332.84.98 1.623.86 1.96-.364 1.09-1.82 2.128-2.276 3.135-.182.42.49 1.82.458 2.298-.15 1.318-.603 2.998-.542 4.286 0 .254.183 1.57.274 1.71.15.25.488.39.7.615.21.224 1.825 3.36 1.886 3.695.303 2.323-3.072 1.51-1.126 3.834.303.363.546.755.88 1.062.426.42 2.92 2.24 2.95 2.438.06.336-2.007.672-2.373 1.035-.973.95-1.793 2.715-2.735 3.694-.577.616-1.094-.056-1.854 1.372-.274.53 0 1.735-.335 2.07-.485.504-.88-.17-1.367.056-.214.084-.335.7-.548.867-.548.477-5.41 3.052-5.868 2.828-.242-.11-.516-.922-.546-1.173-.06-.28-.365-.894-.61-1.09-1.244-1.064-3.16-1.26-4.375.028-.303.336-.333.84-.73 1.177-.667.56-1.427 1.063-2.065 1.624-.12.11-.484.53-.64.503-.482-.06-1.67-1.4-1.972-1.767-.544-.642-2.125-2.183-2.28-2.91 0-2.492-1.943-5.096-2.764-7.532l1.215.03c1.37-.924.972-3.19 3.434-2.296.306-.42.276-.87.854-1.178.21-.11.606-.224.727-.42.82-1.26 1.794-6.075.943-7.31-.76-1.118-1.55-1.062-2.16-2.91-.18-.504.152-1.092 0-1.65-.12-.45-.94-3.11-1.064-3.306-.153-.227-.67-.506-.7-.647-.03-.223-.213-3.106-.12-3.33-.82-2.24-3.588-3.67-3.74-3.92-.334-.53-.67-1.23-1.034-1.82-.426-.7-.426-1.065-.67-1.737-.09-.308-.546-.56-.576-.896-.06-.59 1.61-1.82 1.55-2.86-.03-.333-1.064-1.342-.85-1.9.21-.59 1.275-1.904 1.245-2.55-.06-.867-1.67-2.74-1.88-3.667-.09-.448.64-.812.454-1.12-.213-.392-1.915-1.932-2.19-2.38-.212-.336.64-.784.032-1.4-.55-.56-.09-.363-.246-.84-.182-.53-.79-1.008-1.034-1.567-.21-.477-1.67-5.74-1.64-6.05-.244-.363-.67-.67-.883-1.035-.21-.36-.302-1.06-.484-1.34-.03-.03-1.645-.505-1.95-.98-.242-.39-.303-1.68-.73-2.324-.21-.31-.545-.25-.79-.476-.212-.17-.18-.477-.333-.673-.485-.67-1.46-.053-2.127-2.52-.882-.614-1.702-1.146-2.462-1.9-.15-.14-.242-.31-.424-.393-.608-.25-1.52-.335-2.037-.783-.305 0-1.916-.056-2.098-.168-.18-.11-.365-.813-.487-.84-.85-.17-2.25-.085-2.98-.7-.577-.505-.7-2.94-1.732-2.605-.12-.056-.27-.11-.423-.083-.67-.87-2.98-.98-3.923-1.54-.274-.17-1.155-.028-1.155-.28.213-.476.152-.868.182-1.345-.515-.503-.85-1.09-1.214-1.454-.883-.198-.548-.283-1.096-.618-1.52-.112-1.67.14-2.644 1.035-.244.226-.73.28-1.034.45-.515.28-.67 1.206-1.396.785-.243-.14-.395-.363-.578-.53-.426-.364-.67-.17-.882-.84-1.246-.673-4.682 1.65-5.502.027-.577-.307-1.002.085-1.49-.42-.242-.25.67-3.05-1.823-4.2.577-.446 1.185-.754 1.73-1.175.15-.31-.03-.783-.03-1.092 0-.476.305-1.4.21-1.736-.09-.335-.453-.614-.575-1.007-.153-.393.03-.896-.183-1.316-.15-.11-.607-.39-.79-.39-.64-.533-1.337-.87-1.854-1.514-.12-.14-.212-.393-.364-.505-.456-.336-1.946-.784-1.885-1.483.03-.224.333-.252.425-.476.09-.28.03-.644.243-.895.7-.952 2.25-.532 2.006-2.296-.122-.787-.67-1.46-.82-2.3-.273-.193-.304-.53-.547-.726-1.52-.14-1.307-1.708-1.854-2.073-1.61-1.09-2.857-.42-1.064-2.573.24-.7-1.55-1.82-1.917-2.214-.637-.617-.333-1.905-.576-2.578-.12-.335-1.186-.924-1.52-1.4-.09-.14-.365-.867-.516-.95l.03-.225c.335-.25.153-.755.06-1.092-.21-.195-.667-.14-.82-.28-1.46-1.315-3.222-1.903-5.137-2.658-.52-.196-.367-.617-.79-.813-.368-.168-2.95-1.315-3.134-1.26-.306-.084-.52-1.23-.73-1.595-.184-.34-.91-.954-.91-.98.06-1.066-.61-1.207-1.43-1.767.06-.14-.09-.475-.09-.643 0-.14.544-1.99.636-2.24.15-.39.67-.755.577-1.203-.12-.7-.21-1.794-.453-2.41-.82-2.184-1.794-1.904-1.277-4.76.122-.59-.09-.926.365-1.457-.06-.03.212-.31.242-.365.274-.25 1.035-.67 1.187-.867.457-.613.73-2.015 1.308-2.463.426-.337 1.64-.98 1.855-1.26.18-.225.455-.925.303-1.205-.425-.25-.85-.14-1.276-.193-.152-.028-.7-.42-1.124-.504-.122-.14-.334-.31-.334-.504l-.184-.17c-.487-.056-1.035-.364-1.46-.503-.547-.225-1.307-.253-1.824-.56-.975-.56-2.07-2.1-3.01-2.325-1.278-.28-2.1.11-3.315.167-.79.054-.79-.42-1.43-.618-.85-.25-.212.45-2.16-.168-.24-.196.124-.868.154-1.12-.304-.085-.67.084-1.034 0-1.613-.392-1.005-1.848-1.43-2.8-.183-.225-.853-.17-1.157-.196-.09-.03-.12-.17-.09-.225l.15-.112c.272-.42-.7-1.48-.67-1.62.06-.338 2.04-.647 2.31-.675.09-.25-.18-.473-.21-.725-.06-.56.302-1.288.484-1.79l-.06-.17c-.55-.307-.73-.756-1.218-1.12.03-.25.365-.42.426-.67.94-2.604 2.4-.53 3.678-2.94.122-.224.487-.812.608-1.203l.245-.056c.243.06.577.255.82.17.183-.25.58-.335.882-.42l.454.11c2.37-.5 1.823-1.37 3.19-2.35.363-.25 1.427-.364 1.914-.532.516.224 1.246 1.036 2.22 1.4.7.28 3.1.784 3.494 1.008.515.28.606.954 1.062 1.206 1.367.73.577-.5 1.884-.25 1.337.28 2.43 1.37 3.677 1.905.217.085.73-.027.977-.083.395-.084 2.522-.476 2.735-.392.247.085.61.31.855.366.303.057.545-.59.76-.56.91.14.94.506 2.157.395.06 0 .64-3.416 1.22-3.584.333-.083 1.245.813 1.52.87.455.11-.03-.7-.063-.756-.12-.28-.76-2.38-.73-2.578.03-.112.61.168.883.084.666-.22 1.58-.39 2.065-.92.06-.056 1.093-1.54 1.124-1.596.063-.25-.27-.84-.12-1.034.15-.17.73-.393 1.002-.673.396-.393.457-1.065 1.004-1.345 2.157-.197 2.917-1.877 4.863-2.1.12 0 .546-.085.637-.057l.398.645c.123.17 1.43.953 1.64.897.185-.03.276-.337.46-.393.394.056 1.49-.616 1.61-.95.03-.058-.243-.394-.12-.618.09-.168 1.457-1.176 1.67-1.288.486 0 1.003-.113 1.46.055.272.112.303.532.607.59.335.026.944-.114 1.187-.058.27.056.394-.503.73-.532l.06.058s1.246-.84 1.702-.95 2.068-.615 2.068-.615 1.033-.532 1.58-.532c.578 0 1.703.616 2.067 1.148.335.535 2.16 1.46 2.16 1.46s1.246.42 1.49 0 .79-.73 1.367-.73.67-.533.67-.953.243-.952.668-1.456c.456-.53 1.368-.84 1.368-.84s1.247-.53 1.368-1.26c.122-.727 1.368-1.26 2.067-1.37.67-.11 0-.42 1.824-.225 1.82.224 2.063-.42 2.16-.952.12-.532 0-1.064 1.15-.953 1.154.11 1.702.11 1.702-.535 0-.616 1.033-.952-.79-1.456-1.825-.53-1.704-.11-1.825-.95-.12-.84 0-.73-1.245-.84-1.247-.116-.578-.73-.67-1.376-.12-.616-.456-.953-.668-1.373-.243-.42-.91-.42-.91-1.035 0-.616-.123-.952-.792-.952-.67 0-.912 0-.912-.615s.123-1.15.79-1.15c.67 0 1.036-.53.914-1.15-.12-.615-.12-1.987-.12-1.987l.912-1.062s2.736-2.21 2.98-2.63 1.154-.73 1.58.11c.456.84.67 1.065 1.034 1.457.334.42 1.37.11 1.58-.31.244-.42.335-1.96.943-2.8.61-.813 1.035-1.232 1.187-1.905.15-.672.452-1.232 1.182-1.232s1.185-.952 1.185-1.512.304-1.09 1.186-1.23c.88-.14 1.337-.67 1.64.14.305.81.61.81 1.187 1.09.61.28 1.49.677 1.916.28.456-.42.668-1.09 1.337-.67.64.42 1.094 0 1.246-.81.15-.81.304-1.903.304-1.903s.15-.56 1.184-.56.303-.67.88-1.09c.61-.42.61-.81 1.34-.56.727.28 1.914-.336 1.335-1.01-.61-.67-1.918-1.762-1.19-2.602.73-.81 1.036-2.183.306-2.323-.73-.14-1.793.14-1.915-.67-.153-.81-.457-1.37.455-1.51.88-.14 2.374-.14 2.83-.56.457-.42 1.916-.67 1.916-1.905s.457-1.372.61-2.044c.15-.67.15-2.1-.457-2.77-.61-.67-1.49-1.65-1.64-2.044-.15-.42-.73-1.09-1.64-1.37-.88-.28-1.64-.42-1.64-1.094s.604.14.604-1.65c0-1.76-1.184-2.04-1.184-2.04l-1.79-1.094s-3.163-.84-4.014-.84c-.85 0-1.823-.894-.85-1.455.972-.56 1.215-1.57.85-2.352-.364-.783-.607-1.344-1.945-1.68s-1.7-.672-1.093-1.456c.61-.782.73-1.343 1.46-.782.73.56 1.945.784 2.917.336s1.34-.784 1.827-.335c.488.448 1.096.897 1.825.224.73-.67 2.068-.782 2.676-.446.61.337 2.066.226 2.553 0 .484-.223 1.46-1.007 1.46-1.455 0-.45.605-1.234 1.213-1.57.607-.337 1.337-1.457 1.946-1.457.606 0 .85-.672.85-1.12 0-.45.486-1.345.61-1.68.12-.337 1.336-.813 2.187-.113.85.67 1.944.895 1.944.895s1.217.225 1.825 0c.607-.224 1.46-.447 2.31.11.852.563 2.067.563 2.067.563s.244-.894.244-1.342.245-1.233-.242-1.57c-.485-.335-1.093-.783-.12-1.455.975-.675.975-.56 1.947-.56s1.58.11 2.31.11 1.947.67 1.947 1.344.486 1.12 1.094 1.455c.61.336 1.338.67 1.095 1.23s-.242 1.01.487.898.972.335.972.895.243.895.974 1.12c.73.224 1.094.672 1.094 1.232s-.12.896.12 1.456c.246.56.976 1.46.976 1.46s1.34 1.566-.363.782c-1.7-.783-2.066-1.12-2.674-1.006-.608.11-.973.443-.973.443s-.852.224-1.46.224-1.215 1.23-.243 1.456c.972.227 1.337.45 1.337 1.235s-.366.56-.85 1.12c-.49.56-.854.226-1.705.226-.852 0-1.096.672-1.096 1.344s.363.56.73 1.12.97.67 1.58.11c.61-.56 1.094-.896 1.46.11.363 1.01.85 1.01 1.58 1.01.73 0 .973 0 1.58-.335.604-.334 1.334 0 1.46.898.12.897.73 1.01 1.334 1.345.607.337.973.56 1.095 1.12.12.56.484.785 1.094.45.606-.337 1.58-.56 1.943-.113.363.447.972 1.342.972 1.342l.122 1.12 2.31.783s.244.56.244 1.01c0 .45.368.67.977.56.608-.11 1.703 0 1.703 0s.85-.337.85-1.01c0-.67.362-.894.97-.894.61 0 1.948.448 2.314-.224.364-.67 1.46-.896 2.31-.56.852.335 3.04 1.23 3.04 1.23s-.243.113.486 1.233c.73 1.12 2.068 1.12 2.068 1.12s.122 1.01.365 1.458c.242.45 1.337.673 1.943.225.608-.45 1.46-1.01 2.19-1.01s1.215 0 1.215-.45-.73-.783-.73-1.455.73-.672.855-1.344.852 0 1.337.34c.49.334 1.096.894 1.096 1.342 0 .448.973 2.017 1.58 2.24s2.19.337 2.677-.223c.485-.56 1.702-.786 1.58.56s-.365 1.454.487 1.902c.85.45.974 2.016.244 2.464-.73.45-.974.56-.974 1.345s-.244 1.68.365 2.13c.61.45.974.784.974 1.232 0 .447.73 2.463.73 2.463s.363 2.017.24 2.465c-.12.448-.365 1.23.73 1.12 1.093-.112 1.337-.112 1.337.784s.364 1.23-.244 1.57c-.606.333-.972 1.453-.364 1.68.605.22 1.092.56 1.213 1.005.12.45 1.094 1.233 1.702.785.607-.445.73-.67 1.216-.78s.85-.45.364-1.01-.61-1.12-.12-1.458.73-1.456.73-1.456.724-1.01 1.58 0c.85 1.01.97.67 1.58.67.603 0 .85.56.85 1.12s1.214.45 1.214 1.347.242 3.025.242 3.025 0 1.23.73 1.68.607.56.242 1.12-.243 1.458-.243 1.906c0 .446.24.67-.368 1.12-.605.446-.85 1.007-.483 1.68.363.67.24 1.12 1.214 1.903.973.784.852 1.12.852 1.68s.972 1.344.972 1.904.73 1.23 1.335 1.344c.61.114 1.34 1.12 1.34 1.68 0 .56.12 2.018.12 2.018s-.12.336.608.336 1.216.783 1.46-.113c.243-.893.973-1.005 1.458-1.23.488-.223 1.46-.67 1.947-.335.485.338 1.094.338 1.58.338.485 0 2.796.114 2.796.114s.61-.11.975.785c.363.895 1.46 1.903.85 2.352-.607.45-.607 1.343.122 1.343s1.46 0 1.46.56.12 1.007.725.67.974-.45 1.22 0c.24.448.73.448 1.336.784.607.335.85.11 1.216-.337.366-.45 1.826-.896 1.826-.896s1.945-.446 2.675-.222c.73.225 1.703.673 1.703.673s.486 1.12.243 1.79c-.243.673-.486.56-.243 1.57s-.243 1.12-.73 1.007c-.485-.112-.973-.112-.973.784s-.484 1.12-.484 1.905c0 .785 0 .673-.486 1.01-.487.336-.61.896.12 1.01.73.11.486.895.486 1.343 0 .448-.122 1.456-.122 1.456s.123.56-.73.56-1.58-.11-1.7.45c-.122.56-1.094 1.454-.243 2.014.85.56.61.895.12 1.12-.483.223-.85 1.343.125 1.68.97.335.85.67.24 1.12s-1.824.784-1.824 1.456-.24.67-.972.78-1.097 1.01-.244 2.13c.85 1.12 1.092.897 1.7.897.604 0 .604-.895.604-.895s2.068.114 2.676.114c.61 0 1.46 0 1.946-.338.486-.336 1.824-.896 1.824.112s.245.895.853 1.343c.607.45.73.113 1.216.785.484.672.605.112.97-.672s1.096-1.568 1.703-.672.607.674 1.337.674.978.335.978.895.73.56 1.583.446c.85-.11.97.446 1.338 1.006.362.56.484.448.97.448s.973 0 1.338-.448.85-1.008 1.337-.336 1.46.56 1.702-.225c.24-.785 1.336-1.457 1.945-.56.606.895 1.092.895 1.7 1.007.61.11 1.46.11 1.825.673.364.56 1.58 1.455.73 2.127s-1.825 1.568-1.097 1.793c.73.224 1.216.448 1.703 1.008.487.56 2.068.786 2.798.898.727.11 1.336.227 2.186-.45.85-.67 1.7-.67 1.58.23s.365 1.903.365 1.903.61 1.456.61 2.016-.123.672.973 1.344c1.095.673 1.1 1.12 1.95.45.85-.673 1.222-1.01 1.222-1.57v-1.79s1.09-.225 1.575-.56c.487-.336 2.367-1.345 2.855-.897.486.446 1.062.335 1.548.11.487-.223 1.443-.223 1.93-.223.486 0 1.33.11 2.303-.673s.97-.56 1.58 0c.606.56.604 1.23.24 1.68-.365.448 0 1.456.85 1.456.852 0 1.094.45 1.094 1.01s.12 1.343.244 1.79c.122.45.122.672 1.46 1.01 1.336.334 1.094 1.12 1.336 1.68.24.57.24 1.02-.493 1.02zm39.688-109.495l-16.93-12.285-16.927 12.29 6.466-19.92L454.896 123h20.925l6.47-19.9 6.47 19.9h20.926l-16.93 12.338 6.466 19.915z"/><path fill="#D0A650" d="M458.676 262.06c-1.338-.336-1.338-.56-1.46-1.007-.12-.448-.243-1.232-.243-1.792s-.243-1-1.094-1c-.86 0-1.22-1.01-.86-1.455.362-.45.362-1.12-.24-1.68-.61-.56-.61-.784-1.58 0s-1.828.673-2.31.673c-.49 0-1.46 0-1.95.223-.486.225-1.094.336-1.58-.11-.488-.45-2.305.56-2.79.895-.487.337-1.577.56-1.577.56v1.793c0 .56-.37.894-1.22 1.566-.854.672-.795.223-1.89-.45-1.096-.672-1.004-.783-1.004-1.344 0-.56-.626-2.018-.626-2.018s-.492-1.01-.37-1.907-.734-.896-1.586-.225c-.85.673-1.46.56-2.19.448-.73-.11-2.31-.335-2.797-.896-.486-.56-.973-.786-1.703-1.01-.73-.225.245-1.12 1.097-1.79s-.364-1.57-.73-2.13c-.364-.56-1.215-.56-1.822-.67-.61-.114-1.095-.114-1.702-1.01-.61-.896-1.703-.225-1.945.56-.245.783-1.218.896-1.704.224s-.972-.112-1.337.336-.853.45-1.34.45-.61.11-.976-.45-.486-1.12-1.337-1.007c-.854.112-1.583.112-1.583-.447 0-.562-.243-.897-.973-.897s-.73.22-1.337-.673-1.338-.11-1.702.673c-.36.78-.482 1.34-.97.67s-.61-.338-1.216-.786c-.607-.446-.85-.335-.85-1.343 0-1.01-1.34-.45-1.825-.11-.486.337-1.34.337-1.946.337-.61 0-2.677-.114-2.677-.114s0 .897-.608.897-.855.222-1.704-.898c-.852-1.12-.487-2.017.243-2.13s.972-.11.972-.783 1.216-1.01 1.823-1.458.73-.78-.24-1.12c-.974-.333-.61-1.454-.123-1.68.483-.22.73-.56-.12-1.12-.856-.56.12-1.454.24-2.013.12-.56.85-.45 1.7-.45s.73-.56.73-.56.12-1.01.12-1.457c0-.446.242-1.23-.487-1.342-.73-.11-.607-.67-.122-1.007.49-.337.49-.225.49-1.01 0-.783.486-1.007.486-1.903 0-.897.486-.897.973-.785.485.11.972 0 .73-1.01-.245-1.007 0-.896.24-1.568s-.244-1.792-.244-1.792-.97-.447-1.7-.67c-.73-.225-2.675.223-2.675.223s-1.46.45-1.826.897c-.367.446-.61.67-1.217.334-.61-.34-1.1-.34-1.34-.787-.247-.447-.61-.335-1.22 0s-.73-.11-.73-.67-.728-.56-1.458-.56-.73-.897-.122-1.345c.61-.45-.485-1.46-.85-2.356-.365-.894-.974-.782-.974-.782s-2.313-.11-2.8-.11c-.486 0-1.095 0-1.58-.336-.49-.336-1.46.11-1.947.336-.486.225-1.216.337-1.46 1.23-.243.898-.73.114-1.46.114s-.606-.336-.606-.336-.12-1.456-.12-2.016-.73-1.567-1.34-1.68c-.606-.11-1.337-.783-1.337-1.343 0-.56-.972-1.347-.972-1.907s.122-.9-.85-1.68c-.975-.788-.852-1.23-1.217-1.908-.36-.673-.12-1.233.49-1.682.607-.446.364-.67.364-1.12 0-.446-.12-1.342.242-1.902s.486-.67-.243-1.12-.73-1.68-.73-1.68-.24-2.13-.24-3.023-1.216-.783-1.216-1.344c0-.56-.242-1.12-.85-1.12-.61 0-.73.335-1.58-.673-.85-1.007-1.58 0-1.58 0s-.244 1.12-.73 1.458-.365.896.12 1.456c.488.56.123.897-.363 1.01s-.607.335-1.215.783-1.58-.336-1.704-.784c-.12-.45-.607-.785-1.216-1.01-.608-.223-.243-1.342.363-1.68.61-.335.246-.67.246-1.567s-.247-.896-1.34-.784c-1.096.11-.85-.672-.73-1.12.122-.45-.24-2.464-.24-2.464s-.73-2.016-.73-2.464c0-.447-.366-.783-.975-1.23-.606-.45-.362-1.345-.362-2.128 0-.786.242-.898.973-1.346.73-.447.608-2.015-.24-2.463-.85-.447-.61-.56-.486-1.903s-1.093-1.12-1.58-.56c-.484.56-2.065.45-2.674.225s-1.58-1.79-1.58-2.24c0-.45-.61-1.01-1.097-1.346-.487-.336-1.217-1.01-1.34-.336s-.85.67-.85 1.343.73 1.01.73 1.46c0 .45-.486.45-1.216.45s-1.58.56-2.19 1.006c-.606.45-1.7.225-1.944-.223-.243-.446-.365-1.455-.365-1.455s-1.335 0-2.064-1.12c-.73-1.12-.484-1.23-.484-1.23s-2.188-.898-3.04-1.234c-.85-.335-1.945-.11-2.31.56-.365.674-1.7.226-2.31.226-.61 0-.975.224-.975.896s-.85 1.007-.85 1.007-1.095-.11-1.702 0c-.607.114-.973-.11-.973-.56 0-.446-.247-1.006-.247-1.006l-2.31-.785-.122-1.12s-.606-.9-.972-1.345c-.365-.446-1.338-.222-1.945.114-.61.336-.976.11-1.097-.45-.12-.56-.487-.783-1.095-1.12-.606-.335-1.215-.45-1.336-1.343-.124-.895-.854-1.23-1.46-.895-.61.334-.852.334-1.582.334s-1.216 0-1.58-1.008c-.365-1.005-.85-.67-1.46-.11-.608.56-1.216.45-1.58-.11-.366-.56-.73-.45-.73-1.12s.243-1.344 1.094-1.344c.85 0 1.216.336 1.703-.224.485-.56.85-.338.85-1.12 0-.787-.365-1.01-1.338-1.234-.973-.225-.366-1.457.243-1.457.606 0 1.46-.224 1.46-.224s.36-.335.97-.446c.608-.11.974.226 2.676 1.01 1.702.784.364-.784.364-.784s-.73-.897-.973-1.457c-.24-.56-.12-.9-.12-1.46s-.36-1.007-1.09-1.23c-.73-.225-.975-.56-.975-1.12s-.242-1.008-.972-.896-.73-.337-.484-.897-.487-.896-1.096-1.232c-.608-.336-1.094-.783-1.094-1.455s-1.215-1.344-1.944-1.344c-.73 0-1.34-.113-2.31-.113-.974 0-.974-.112-1.948.56-.97.672-.365 1.12.122 1.456.487.335.243 1.12.243 1.57s-.243 1.34-.243 1.34-1.215 0-2.067-.56c-.85-.56-1.7-.336-2.31-.11-.61.224-1.822 0-1.822 0s-1.092-.225-1.943-.896c-.85-.7-2.066-.226-2.19.11-.12.336-.606 1.232-.606 1.68 0 .45-.244 1.12-.852 1.12-.61 0-1.337 1.12-1.945 1.457-.607.337-1.215 1.12-1.215 1.57 0 .45-.972 1.233-1.46 1.457-.485.225-1.943.336-2.552 0-.606-.336-1.944-.224-2.674.45-.73.67-1.34.22-1.826-.225-.486-.448-.85-.112-1.824.335s-2.19.224-2.92-.335c-.73-.56-.85 0-1.46.783-.604.782-.24 1.12 1.098 1.454s1.58.893 1.946 1.68c.365.78.12 1.79-.85 2.35-.974.56 0 1.457.85 1.457s4.014.84 4.014.84l1.793 1.09s1.187.28 1.187 2.044c0 1.79-.607.98-.607 1.65s.76.813 1.64 1.093c.912.28 1.49.95 1.642 1.37.152.393 1.034 1.373 1.642 2.045.607.67.607 2.1.455 2.77-.156.673-.61.813-.61 2.045s-1.46 1.484-1.918 1.904c-.457.42-1.947.42-2.828.56-.91.14-.606.7-.454 1.51.123.813 1.187.533 1.916.673.73.14.427 1.512-.303 2.324-.73.84.578 1.933 1.186 2.605.576.672-.61 1.29-1.34 1.01-.73-.254-.73.14-1.337.56-.58.42.15 1.09-.88 1.09-1.035 0-1.187.56-1.187.56s-.152 1.092-.304 1.904c-.15.81-.607 1.23-1.247.81-.67-.42-.88.254-1.337.674-.426.39-1.308 0-1.916-.28-.58-.28-.88-.28-1.186-1.093-.304-.81-.76-.28-1.64-.14-.882.14-1.187.673-1.187 1.233s-.456 1.51-1.186 1.51-1.033.56-1.185 1.23c-.154.67-.58 1.09-1.188 1.904-.61.84-.7 2.38-.944 2.8-.212.42-1.246.726-1.58.306-.365-.392-.578-.616-1.034-1.456-.425-.84-1.337-.532-1.58-.112s-2.98 2.633-2.98 2.633l-.91 1.062s0 1.372.12 1.988c.123.62-.243 1.15-.91 1.15-.67 0-.79.53-.79 1.15s.24.615.91.615.79.336.79.953.67.617.91 1.037c.215.42.55.753.67 1.37.09.645-.577 1.26.67 1.373 1.246.11 1.125 0 1.246.84.12.84 0 .42 1.823.95 1.826.503.79.84.79 1.455 0 .643-.545.643-1.7.53-1.154-.11-1.033.42-1.154.954-.09.533-.335 1.176-2.16.953-1.824-.197-1.155.11-1.824.223-.7.112-1.945.644-2.066 1.373-.12.73-1.368 1.26-1.368 1.26s-.915.31-1.37.84c-.426.504-.67 1.036-.67 1.456s-.09.953-.67.953-1.124.305-1.367.725-1.49 0-1.49 0-1.823-.925-2.157-1.457c-.366-.53-1.49-1.146-2.068-1.146-.547 0-1.58.532-1.58.532s-1.61.503-2.067.615-1.7.952-1.7.952l-.06-.058c-.336.03-.458.588-.73.532-.244-.056-.853.084-1.187.056-.305-.055-.335-.475-.61-.587-.455-.167-.972-.056-1.46-.056-.21.11-1.58 1.12-1.67 1.284-.122.225.15.56.12.617-.12.338-1.214 1.01-1.61.954-.18.058-.273.366-.456.394-.21.057-1.52-.727-1.64-.895l-.397-.646c-.09-.027-.52.057-.64.057-1.947.224-2.707 1.904-4.865 2.1-.546.28-.607.953-1.002 1.344-.273.28-.85.504-1.003.672-.152.194.183.782.12 1.034-.03.057-1.062 1.54-1.123 1.597-.486.534-1.4.7-2.066.926-.27.085-.85-.195-.88-.083-.03.194.61 2.293.73 2.574.03.056.518.868.06.755-.27-.055-1.183-.95-1.52-.868-.575.17-1.153 3.585-1.213 3.585-1.216.11-1.247-.254-2.16-.395-.212-.027-.455.617-.76.562-.242-.058-.606-.28-.85-.365-.212-.082-2.34.31-2.736.395-.244.058-.76.17-.974.086-1.247-.53-2.34-1.623-3.678-1.903-1.308-.25-.518.98-1.886.253-.456-.253-.547-.925-1.064-1.205-.395-.223-2.796-.727-3.496-1.007-.973-.363-1.703-1.175-2.22-1.4-.486.168-1.55.28-1.914.533-1.368.98-.82 1.848-3.192 2.353l-.455-.114c-.304.082-.7.166-.88.42-.245.082-.58-.11-.822-.17l-.243.056c-.123.39-.487.98-.61 1.204-1.275 2.41-2.735.337-3.677 2.94-.06.253-.396.42-.426.673.49.363.67.812 1.218 1.12l.06.168c-.182.507-.546 1.23-.485 1.795.03.25.307.475.215.727-.273.03-2.25.34-2.31.677-.03.14.942 1.202.67 1.622l-.153.112c-.03.054 0 .194.09.223.305.027.975-.028 1.157.195.425.954-.18 2.41 1.43 2.8.364.086.73-.083 1.033 0-.03.254-.397.926-.153 1.12 1.947.617 1.31-.083 2.16.17.638.195.638.67 1.43.615 1.215-.055 2.036-.446 3.313-.167.942.225 2.036 1.765 3.01 2.325.516.306 1.276.334 1.823.56.425.14.97.446 1.458.503l.185.17c0 .197.212.365.333.506.424.084.97.476 1.123.503.424.06.85-.054 1.275.197.15.28-.12.98-.305 1.205-.215.28-1.43.922-1.857 1.26-.576.446-.85 1.85-1.306 2.462-.152.196-.912.616-1.186.868-.03.06-.303.34-.242.37-.456.53-.243.866-.365 1.455-.518 2.856.455 2.577 1.276 4.76.243.617.334 1.71.456 2.41.09.45-.427.813-.58 1.205-.09.25-.638 2.1-.638 2.24 0 .167.152.503.09.643.822.56 1.49.7 1.43 1.763 0 .03.73.646.91.98.214.365.427 1.513.73 1.597.183-.057 2.768 1.09 3.132 1.26.426.195.273.616.79.812 1.916.754 3.68 1.342 5.14 2.657.15.143.607.086.82.28.09.338.273.84-.06 1.094l-.03.226c.15.083.425.81.515.95.336.477 1.4 1.065 1.52 1.4.246.673-.06 1.96.58 2.577.364.39 2.157 1.51 1.914 2.21-1.793 2.156-.547 1.484 1.064 2.575.547.364.334 1.932 1.854 2.07.245.197.275.533.548.73.152.84.7 1.512.82 2.296.244 1.763-1.307 1.343-2.006 2.296-.212.25-.15.613-.242.894-.09.225-.395.253-.426.48-.06.7 1.43 1.145 1.885 1.48.154.114.245.366.367.506.518.646 1.217.98 1.855 1.514.182 0 .637.28.79.39.213.42.03.925.182 1.317.12.394.485.673.576 1.008.09.337-.214 1.26-.214 1.736 0 .31.18.786.03 1.095-.55.42-1.157.727-1.735 1.174 2.494 1.15 1.58 3.95 1.825 4.2.484.504.91.112 1.49.42.82 1.624 4.254-.7 5.5-.028.212.67.455.474.88.84.184.165.335.39.58.53.73.42.88-.506 1.397-.786.305-.167.79-.224 1.035-.448.973-.895 1.125-1.147 2.645-1.035.547.337.213.42 1.095.618.365.363.7.95 1.215 1.455-.03.48.03.87-.182 1.348 0 .25.88.11 1.155.28.945.56 3.255.67 3.925 1.54.152-.028.304.026.425.083 1.032-.334 1.154 2.1 1.732 2.606.73.616 2.13.532 2.98.7.12.03.305.73.488.84.18.112 1.79.17 2.095.17.518.446 1.43.53 2.038.782.183.082.274.25.426.39.76.756 1.58 1.288 2.46 1.904.67 2.467 1.64 1.85 2.13 2.52.15.198.12.506.33.674.243.226.58.17.79.478.427.646.487 1.934.73 2.324.304.477 1.915.952 1.945.98.182.28.273.98.485 1.344.215.365.64.67.884 1.037-.03.308 1.43 5.572 1.64 6.05.244.56.85 1.035 1.034 1.567.15.477-.305.28.243.84.608.616-.244 1.064-.03 1.4.273.448 1.975 1.988 2.188 2.38.185.31-.545.67-.455 1.12.213.925 1.824 2.8 1.885 3.668.03.644-1.034 1.96-1.246 2.547-.215.56.82 1.567.85 1.902.06 1.037-1.61 2.27-1.55 2.857.03.335.485.588.576.895.244.673.244 1.038.67 1.737.365.584.7 1.284 1.034 1.82.153.25 2.92 1.68 3.74 3.92-.092.22.09 3.103.12 3.33.03.14.548.42.7.642.122.195.942 2.854 1.064 3.304.15.56-.183 1.146 0 1.65.607 1.85 1.4 1.792 2.16 2.91.85 1.234-.124 6.05-.944 7.31-.12.196-.517.31-.73.42-.577.31-.546.756-.85 1.176-2.463-.894-2.068 1.374-3.436 2.3l-1.215-.03c.82 2.438 2.764 5.04 2.764 7.533.15.725 1.736 2.266 2.28 2.91.308.362 1.49 1.706 1.98 1.763.15.027.517-.393.64-.504.637-.56 1.397-1.064 2.066-1.624.396-.338.426-.84.73-1.177 1.216-1.29 3.13-1.09 4.377-.026.245.195.55.812.61 1.092.03.25.303 1.063.546 1.175.455.227 5.32-2.35 5.866-2.825.213-.168.334-.783.547-.868.487-.225.88.447 1.37-.057.334-.334.06-1.54.334-2.07.76-1.43 1.28-.756 1.857-1.373.942-.98 1.763-2.744 2.735-3.696.367-.363 2.434-.7 2.374-1.035-.03-.196-2.524-2.016-2.95-2.437-.334-.306-.577-.7-.88-1.062-1.947-2.32 1.43-1.51 1.124-3.833-.06-.336-1.673-3.47-1.886-3.695-.213-.223-.547-.363-.7-.614-.09-.14-.272-1.456-.272-1.708-.06-1.29.396-2.97.548-4.287.03-.476-.638-1.875-.456-2.296.46-1.006 1.92-2.043 2.28-3.135.125-.336-1.183-1.12-.85-1.96.12-.25 1.52-.784 1.794-.98.152-.11.274-.308.365-.476.334-.617 1.25-1.457 1.705-1.988.03-.03-.332-.338-.332-.422v-.504c0-.28 1-1.177 1.275-1.26.73-.196 1.52.31 1.64.31 1.218-.115 2.34-.34 3.528-.48 2.04-.223 1.81-2.575 2.63-2.743.79-.168 3.44-.057 4.324.084.457.085 1.19.45 1.677.45.395 0 .792-.226 1.034-.477.364-.363.487-.73.792-1.063.18-.226 2.523-2.186 2.523-2.21.15-.395.576-2.13.76-2.356.364.14.607.28.94.168.52-.167 1.946-1.763 2.464-1.96.85-.335 2.614.31 3.71.17.485-.057.79-.505 1.306-.588.275-.03.73.166.884.053.243-.17.425-.42.67-.59.12-.083.395-.222.546-.25 2.066-.42 2.036-1.065 2.644-1.26.272-.085.91 0 1.246-.057l1.307-.337c.153-.11.123-.39.244-.53.61-.7 1.46-1.148 2.07-1.905.123-.14.61.17.913-.14.73-.73 1.217-2.27 1.946-2.91 1.154-1.006 2.43-.98 3.586-1.85 1.123-.864 1.43-1.9 2.613-2.71.243-.17.7.025.973 0 .368-.03.79-.228 1.16-.2.12 0 .363.59.516.73.362.363.73.363 1.213.39.91.086 4.62.534 5.198.87.52.31.398 1.765.52 2.213.153.56.73.728 1.035 1.148.27.394-.095.785.03 1.01.393.755 1.092 1.734 1.85 2.24.7.474 1.034 2.322 1.4 3.022.486.926 2.28 1.907 2.463 3.05.15 1.125-.184 2.27-.487 3.337-.03.082.638 1.705.76 1.763.91.504.243 1.204.64 1.457.213.14.85-.393 1.186-.28.605.195 1.61.336 2.155.645.247.14.4.336.7.336.458 0 1.036-.474 1.52-.56.52-.082 1.19.197 1.49.086.488-.14 1.28-1.654 2.49-1.654.188 0 .947.084 1.04 0 .21-.196.27-2.07 1.09-2.07 1.887 0-.272 2.406.883 2.38.425 0 2.34-.87 2.28-1.29 0-.027-.975-1.287-1.005-1.428-.18-.478.304-.45.152-.868-.15-.45-.577-.14-.667-.31-.7-1.204.12-.784-1.247-2.155-.092-.083.303-.502.03-.81-.213-.25-1.033-.56-.973-.95.06-.34.79-.227 1.002-.45.21-.195.332-.756.423-1.01.09-.25 1.275-1.4 1.55-1.82.395-.56-.61-1.23-.244-1.96.822-1.733 3.496-2.66 2.22-5.122-.15-.333-.12-.474.03-.78.06-.14.15-.28.243-.42.607-1.038.942.53 1.43.14.972-.785 1.032-1.988 1.793-2.8.73-.785 1.247-.478 1.916-.98.79-.59.61-1.23 1.156-1.96.152-.225 1.124-1.037 1.124-1.037.155-.42-.483-.922.246-1.174.485-.14.852.31 1.308.28.458-.055.608-.53 1.065-.56 1.977-.14 2.22 1.736 3.497 2.746 2.28 1.79 3.8.196 2.89-2.1-.334-.87-1.46-1.176-1.58-2.21-.09-.758 1.397-1.737 1.702-2.38.363-.786-1.126-1.065-.55-1.514 1.52-1.204 1.52 1.428 3.56.7 1.06-.392-.73-2.1 1.793-1.932 1.245.11.88 1.063 1.7 1.624.52.364 2.16-.867 2.98.364.243.364 1.003 1.54 1.125 1.933.217.67.67 3.526 1.4 3.78 1.4.475 1.49-.646 2.465-1.094 1.063-.504.91.87 1.793.477.426-.194.426-.614.73-.838.395-.28.85-.143 1.275-.31.76-.31 1.066-1.85 2.25-2.1 0 0-.82-2.856-1.306-3.19-.485-.338-.973-1.233-1.58-1.906-.607-.673-.607-1.456-.73-3.024s-1.823-1.12-1.944-.336c-.122.783-.852.896-1.703.896-.85 0-.85-.672-.85-1.344s-.366-1.904-1.218-2.353c-.85-.45-.73-1.68-.608-2.24.12-.56.12-.896.61-1.345.487-.446.73-.446.853-1.79.12-1.343-.854-1.23-.61-2.574s1.946-.67 2.553.336c.61 1.01 2.557 0 3.407.117.85.11 1.093-.786.607-1.346s.607-1.23.607-1.23.854-.672 1.46-.784 1.703-.113 1.826.56c.12.67.24.67.85.896.605.224 1.58.224 2.31-.56.73-.783.972-.56.972-1.23s0-1.12.606-1.458c.61-.335.366-.335.366-1.23s.366-.897 1.096-1.232c.73-.337.73-.448 1.096-1.232.365-.782-.243-1.007-1.215-1.007-.973 0-.243-.67-.122-1.567.122-.897-.365-1.008-.973-1.345-.607-.335-.973-2.127-1.46-2.687s-.364-1.01 0-1.567c.366-.56 1.096-1.344 2.31-1.457 1.216-.11.974-1.008 1.095-1.568s1.58-.784 1.58-.784.12-1.23.73-1.343c.606-.11.73-.56.73-1.005s.605-1.23.97-1.68c.365-.447.73-.67 1.58-.67s.974-1.345 1.096-2.24c.12-.897 1.097-1.01 1.58-.224.49.782.976.895.976-.226s-.73-1.68-.73-1.68-.85-.785-1.094-1.345-.606-2.017.245-1.904.973-.225 1.46-1.12c.487-.896 2.31-.45 3.04-.337.73.112 1.094.336 1.217-.56.12-.896.972-.56 1.7-.56.732 0 1.097-1.233.366-1.457-.73-.225 0-1.345.243-1.904s.61-.897.61-.897l-1.098-1.68s-.244-.786-1.217-1.346-1.094-2.125-.606-2.35c.484-.224 1.094-.672 1.58-.336.485.336.73-1.345 1.216-1.68.487-.337.487-.784 0-1.57-.485-.782.244-1.68.61-2.126.364-.447 1.095-.447 1.095-.447l1.095.226s1.092-.222 1.214-.782c.12-.56.363-.896 1.093-.896s.73-.445.483-1.01c-.234-.565.008-1.35-1.33-1.684z"/><path fill="#FFF" d="M336.54 120.87l16.93-12.353 16.926 12.27-6.465-19.693L380.86 89h-20.926l-6.466-19.9-6.466 19.9h-20.925l16.93 12.08m59.45 31.258l16.93-12.276 16.927 12.31-6.465-19.987L446.77 100h-20.92l-6.465-19.9-6.467 19.9h-20.925l16.928 12.392M488.76 123l-6.467-19.9-6.466 19.9H454.9l16.926 12.338-6.466 19.92 16.928-12.29 16.93 12.285-6.467-19.915L509.68 123m-240.072-2.13l16.928-12.353 16.93 12.27L297 101.094 313.922 89h-20.925l-6.466-19.9-6.465 19.9H259.14l16.93 12.08m-72.384 31.258l16.927-12.276 16.93 12.31-6.467-19.986L248.004 100H227.08l-6.467-19.9-6.466 19.9h-20.924l16.928 12.392M164.18 123l-6.466-19.9-6.465 19.9h-20.93l16.922 12.338-6.465 19.92 16.93-12.29 16.93 12.304-6.468-19.936L185.105 123"/></svg>
