<?xml version="1.0" encoding="utf-8"?>
<!-- Svg Vector Icons : http://www.onlinewebfonts.com/icon -->
<!DOCTYPE svg PUBLIC "-//W3C//DTD SVG 1.1//EN" "http://www.w3.org/Graphics/SVG/1.1/DTD/svg11.dtd">
<svg version="1.1" xmlns="http://www.w3.org/2000/svg" xmlns:xlink="http://www.w3.org/1999/xlink" x="0px" y="0px" viewBox="0 0 1000 1000" enable-background="new 0 0 1000 1000" xml:space="preserve" fill="#2b87ff">
<metadata> Svg Vector Icons : http://www.onlinewebfonts.com/icon </metadata>
<g><path d="M762.5,440.7L762.5,440.7c15.4,15.6,24.4,37.2,24.4,59.3l0,0c0,22.2-8.9,43.8-24.4,59.4L356.3,965.4l0,0c-32.8,32.8-85.9,32.8-118.8,0l0,0c-32.6-32.8-32.6-85.9,0-118.6l346.7-346.8L237.6,153.3l0,0c-32.6-32.9-32.6-85.9,0.2-118.8l0,0c32.6-32.8,85.8-32.8,118.6,0L762.5,440.7L762.5,440.7z"/></g>
</svg>