<svg xmlns="http://www.w3.org/2000/svg" id="svg2" style="fill:none;stroke:#000" viewBox="0 0 500 400" width="100%" height="100%">
   <path class="province border map-clickable" path-identifier="gansu"  d="M251.383 190.79l2.703-.11-.556 1.67 1.91.318 2.65 2.52 1.157 1.952-.826.894 1.84 4.45-1.043 3.248.93 1.78 2.082.756 1.802 2.778 4.548.72-.29-3.68 2.442.225 1.51-1.123.256-2.906-1.07-1.36-2.59-.574.048-4.45 1.157-4.853 5.236 1.16-.03 1.568 4.936 1.63 1.267 1.603 2.57.526 2.834 1.898-.216 3.577-1.502 1.25 1.014 4.907-1.018 1.204-2.756-.18-1.56.672-1.814-.95-.582.903 1.305 2.51-5.057.845-2.417-1.966-2.86.093-.12 2.162-1.895 2.774 2.906 1.966-.976 1.027-1.06 3.767 1.104 2.946-3.968-.185-2.902 2.242 1.59 1.514-.214 2.492-3.167.687-1.865 2.58-3.035.29-2.775-.743-2.2-1.55.955-2.095-1.023-2.036.836-.53-2.367-3.35-4.656-.446.293-.91-3.057-.15-.523-3.413-2.762-1.04-3.345 2.94-1.64.337 2.537 4.678-5.135 3.35.575-2.776-1.19-1.212-1.34.18-.96-1.89-2.74.396-.25-1.83-1.482-.78-1.276-2.217 1.172-2.287 5.522 1.928 1.378 1.22 3.526-2.804-.507-1.42-3.226-2.07 2.075-2.37 2.104-1.134.885-1.476-.705-2.033 3.25-1.08.106-3.263 2.25.062-.348-2.55.874-1.32-1.81-1.11-1.697-3.36.522-1.473-1.752-1.572.74-2.13-4.23-3.234-.78-2.594-1.238 2.167-6.006-4.576-3.38-1.468-.664-1.525-3.376-2.434.144 2.9-2.927-1.647-5.72-5.475-2.59-1.87-1.468 1.262-2.27-.795-2.087 2.323-5.765-3.66-2.743-.483-.662 8.776-3.552-1.165-.062-.823-3.656-1.356-6.12-5.29-2.025.373-4.717-1.797-6.183.117-6.417 1.622.098-3.16-1.434-3.797 1.202-3.276.18-3.795 2.814.035 2.377-1.275 3.54-5.57 4.652-5.232 3.896-2.223 3.54-.74 2.286.29 2.155-1.817.065-5.565 2.633-2.474 6.73-.713 5.357 12.87-1.626 1.787 2.473 3.648 3.068 2.857-.75 3.38 3.357-.277 1.468-1.71 2.71-1.185 6.97-.647 1.57 3.01-2.484 4.42-3.826 3.476 2.084.03 4.104 1.923 2.895 3.03 2.365.303.154 2.242 2.678 1.544 1.065 2.642 4.25.827 1.633-1.982-1.68-1.946 4.635-1.82 4.672 1.242 2.6-1.83 3.8-1.392 2.54-.026 1.342 3.55-.435 1.38-3.08 3.86-2.637 1.616.41 3.08-1.09.392.41 2.69 1.964.695 3.508 3.227z"></path>
   <path class="province border map-clickable" path-identifier="qinghai"  d="M230.312 229.608l-1.093 3.93-1.62-1.053-2.295 1.05.553 2.633-.5 1.644-2.192.56-1.857-.51-.586 2.247-1.663-2.978-2.288.85.324-1.08-2.436-2.388-1.32 2.752-3.34-1.384-.524-1.088-3.047-1.714-1.685-4.904-1.534-1.61-3.452-1.177-2.367.933-.402-1.382-2.548 1.334.057 2.537 2.725 2.01-1.827 2.07-1.14 2.895.57 1.91 2.327 1.514-.693.968-2.205-.543-.01 2.318-.856 1.78-4.26 1.112.508 2.354-2.548-.366-1.674-1.495-1.502 2.002-4.875-.395-1.167-2.044.58-1.352-1.357-1.44-1.61-.164-1.004-1.614-2.912-2.363-3.85 1.878-3.074-.912-1.827.545-4.12-2.117-6.404-.1-.206-1.202-1.79.196-3.545-2.255-1.478-2.503h-1.408l-3.145 1.917-1.173-.15-3.712-2.398-.532-1.73-1.35-.513-2.763-4.55 1.705-2.732-.993-3.663.52-1.857-1.837-.3-.64-3.85 2.007-1.017.48-3.85-2.484-.537-.404-1.085 1.98-.95 2.402-.23.34-1.497 1.24 1.25 3.732.183 2.06 1.086 2.13-1.384-1.055-3.677-2.6-1.982.975-2.162 3.917-1.052-1.745-4.866-5.203-2.996.023-2.25-2.354-4.538 4.104-2.52 2.93-.256 9.064-2.536 1.72-1.147 4.92-1.083 6.418-1.622 6.182-.117 4.718 1.796 2.026-.373 6.118 5.29 3.657 1.355.062.823 3.552 1.166.66-8.775 2.745.482 5.764 3.66 2.087-2.322 2.27.794 1.467-1.262 2.59 1.87 5.72 5.475 2.928 1.646-.144-2.9 3.377 2.435.665 1.524 3.38 1.467 6.006 4.576 1.237-2.167.78 2.595 4.23 3.235-.74 2.13 1.753 1.572-.522 1.472 1.696 3.36 1.81 1.11-.873 1.32.348 2.55-2.25-.063-.107 3.264-3.25 1.08.706 2.034-.886 1.476-2.104 1.133-2.076 2.372 3.226 2.07.507 1.42-3.527 2.803-1.377-1.22-5.523-1.928-1.172 2.287 1.276 2.218 1.482.778.252 1.83 2.737-.396.963 1.89z"></path>
   <path class="province border map-clickable" path-identifier="guangxi"  d="M313.74 311.935l-.516 1.207.93 1.972-1.452 1.34.266 2.06-1.996 1.428-.46 1.64-1.714 2.018-.326 4.645-2.673 2.386-2.79 1.372.754 1.766-1.08.883-2.52-.06.182 2.655-3.173.196-.408 1.58-1.38.985-2.086-1.086.31 1.816-3.2.79-.025-1.767-3.137-.415-2.472-1.896.907 1.47-1.14 1.244-1.37-.338-2.132.963-1.296-1.35-4.072.235-2.828-2.042.18-.727-2.947-.6.12-2.006-1.06-1.59.29-1.512 1.453-1.502-2.113-1.604-1.405.635-2.584-1.078-1.186.626-2.602-1.723-.113-.57 2.667-3.167 2.287-.19.536-2.93-1.41-2.16-1.902.808-2.184-.855-.6.702-2.262-1.16-.465-2.172-2.942-.525-1.252.59-.484-3.045 1.547.992 2.313-1.493 1.438-1.903 2.613 1.723 4.18 1.577 1.27-1.26-.167-1.604 4.172-1.92 2.684-.74-.17-1.67 2.2-1.07 2.08 3.113 1.212-.833 1.75 1.448 2.183-1.108 1.34-2.44 2.242 1.112 1.034-1.684 2.83.53-.718-2.104 2.833.297 1.275-2.685 1.196-.125 1.38 1.312 1.267-2.626.868 1.46 1.742.53 2.364-2.243.144-1.06 2.652.6.558-1.043 2.487 1.003-.47 2.93 2.06.28-1.067 3.837-2.634 3.184.305 2.097 1.99-2.07 1.245.374.735 4.17 1.226-1.23z"></path>
   <path class="province border map-clickable" path-identifier="guizhou"  d="M291.386 277.496l.783 2.234-.443 1.98 1.2 3.705-5.354 5.212 1.297.515 1.186-.986 2.798.03.667 2.5-1.843 1.198.886 1.736-.865 2.05 1.307 2.488-1.276 2.685-2.834-.296.72 2.104-2.832-.53-1.035 1.684-2.242-1.11-1.34 2.438-2.183 1.11-1.75-1.45-1.213.834-2.08-3.113-2.2 1.07.17 1.67-2.684.74-4.172 1.92.167 1.603-1.27 1.262-4.18-1.578-2.612-1.723-1.438 1.902-2.31 1.492-1.548-.992 1.946-4.684-1.734-1.08-.25-1.146-1.87-1.418 1.574-3.32.377-2.18 1.064-.99-2.004-3.043-2.257.56-1.087 1.25-1.91-.574-.067-3.463-1.484-1.102 2.57-2.884 2.148 1.092 1.388-1.56.81.864 3.488.345 2.666-.817.813-2.976 1.492-.573 1.236.938 5.83-1.408-1.925-3.142-1.777.193-1.97-1.724.268-2.26 1.704-.24.755-1.344 2.892 2.543.357-.858.867.293-.225-2.59 1.9 3.13 1.267-2.7 1.482-1.067 1.78.733 1.535-.636.484-3.445 2.345 1.017.75 1.43 3.354-.868.36 3.618 2.058.82 1.643 1.625-.45 1.705 2.992.343z"></path>
   <path class="province border map-clickable" path-identifier="chongqing"  d="M294.126 246.986l1.132 1.693 3.066 1.56.544 2-.887 3.43-1.595-.57-3.89 2.895-5.913.094-2.362 1.65 1.236.795-.09 5.548.75-1.23 2.116 2.06.396 2.718 2.335 2.29.557.515-.503 3.918.37 1.143-1.335 2.79-2.992-.344.45-1.705-1.642-1.626-2.06-.818-.36-3.618-3.353.87-.75-1.433-2.346-1.015-.485 3.445-1.535.636-1.78-.733-1.483 1.068-1.267 2.7-1.9-3.13.224 2.59-.867-.293-.997-2.763-4.205-1.17-.365-2.14-2.352-1.125-.99-2.26 3.42-2.658.235-1.555-1.483-1.085 1.914-2.607 2.72.766.932 1.156 2.445-1.143 1.46 2.662 2.577.014 1.6-1.703 2.03-3.516.245-2.017 3.445-.48.846-3.333 1.55-2.348 1.5-.94.767-2.156-1.9-1.75 2.045-2.166 4.388 2.476 2.287 2.26z"></path>
   <path class="province border map-clickable" path-identifier="beijing"  d="M357.5 160.854l-.96 1.757-3.916.854 1.383 2.248-.434 1.22-.67.893-1.544-.094-1.78 1.79-1.438-1.373-3.71.666-2.388-1.422.808-1.743-1.105-1.65 3.412-2.112.817-1.424-1.772-2.635 2.176-.606 1.737-1.663 2.054-.444 1.772-1.604 3.12 2.835 3.494.164-2.464 1.77z"></path>
   <path class="province border map-clickable" path-identifier="fujian"  d="M382.503 289.496l-1.433.676-.05 1.883-4.42 2.004-1.176-.375.39 1.633 1.51-.068-.908 2.71-1.756 2.71-1.98-1.068.252 1.207 1.584.03 1.025-.785 1.11.592-1 2.767-1.067-.065 1.46 2.043-2.218-1.255-2.07 1.626 1.43.814.09 1.274-1.89-.324-1.63 1.145 1.025.928-2.18 1.365-.57 2.472-1.833-.503-1.656.746-.477-1.365-1.342 2.212 1.065 1.657-1.9 2.094-1.116-.378-1.35 2.976-.077-1.36-2.366.892-.963 1.544-1.127-1.087-.912-3.03.35-.962-1.79-3.284.158-1.037-1.945.463-1.286-2.03-3.956-.68-.365-2.505 1.11-1.408 1.278-4.667 1.535-.806.62-3.024 1.8-1.864-.936-1.8 1.345-2.723 2.07-.314 1.882-2.343-.34-2.68 1.405-2.667 1.833-1.052 1.932 1.455.636-1.146 4.445-1.502.642-1.75 2.358-.346.105 3.266 1.154 2.318.242 2.26 2.83.485 2.333-2.306 1.784 3.3 4.685-.586z"></path>
   <path class="province border map-clickable" path-identifier="anhui"  d="M364.18 269.08l-1.543-1.54-3.743-.472-.988-1.964-2.77-.088.098 1.226-2.893 1.478-.405-1.457 1.73-2-1.93-1.226-1.29 1.564-2.818.903-1.643-6.2-1.455-2.3 2.19-2.858-3-2.177-.97.33-1.436-2.244 1.286-3.056 3.02-.558.218-2.213-.467-4.904-2.5 1.258-2.982-1.83-.12-2.595-2.118-.965-.316-1.22 2.093-.008 1.653-1.622-.027-2.445 2.39-.893-.6-3.007.754-1.48 2.512.476 1.8 2.772 3.75-2.31-.728-3.29-1.234.118-1.994-1.704-.044-1.183 1.844-.722 3.47 2.373 1.202.107.69 2.31 4.816 1.45.84 2.758 3.24-.374.433.72-2 4.477 2.338.54.17 2.496 1.308 1.873 2.622-.013 1.12-2.334 2.442 1.498.35 2.18-.97 1.43-1.545-1.45-2.773.206.948 1.174-.143 2.08-1.11.368-1.326 2.44 1.02 1.503 3.13 1.564-.892 2.58.53 1.257 4.35-.568 2.294 1.46-.448 2.722-1.076 1.975-1.646.837 1.232 1.727-1.184.604-2.99-.187.105 3.228-1.39 2.376-2.86 2.604z"></path>
   <path class="province border map-clickable" path-identifier="guangdong"  d="M300.623 344.204l1.07 1.08-2.076-.002zm44.883-33.898l3.956.68 1.286 2.03 1.945-.463-.157 1.036 1.79 3.283-.35.962.91 3.03 1.128 1.087-2.17-.34-1.308 2.922-1.755 1.93-.317 1.505-1.74-.165-3.72 1.87-1.17-1.252-1.295 1.296-3.743-.48-1.512 2.095-1.03-.27.25-2.002-1.807.736-.388 2.476-.982-1.422-1.353.51-1.204.234-1.57.677-1.19-2.727-.742.02-.186-2.447-1.22-.146-1.068 1.434 2.03 2.785-.094 2.978-3.512 1.88-.59-1.612-.462 2.172-1.654-.045-1.78 1.68-1.663-.32-1.302.924-.59-.95-3.208 1.222-1.218 1.278-4.426.502-3.13 1.09-.56 1.036-3.525 1.295-.39 2.04h1.733l-.557 1.675 1.906 1.56-1.096 1.545-3.963.455-1.154-4.996-.915-.927.853-3.75 1.46-1.202-1.604-.72 1.38-.984.41-1.58 3.172-.196-.182-2.655 2.52.06 1.08-.883-.753-1.765 2.79-1.37 2.672-2.388.327-4.645 1.713-2.02.46-1.638 1.995-1.428-.266-2.06 1.453-1.34-.93-1.973.516-1.206 1.21-.52.31-3.233 3.924.356 1.18 1.535 1.478-.19-.66-3.21 2.526-1.678 2.98 1.624 2.817-1.104.804 1.63 4.435-1.257 1.317 2.504-2.59 1.35-1.994 2.788 2.087 1.526 2.577-1.127.998.336 4.554-1.768 2.33 2.146.744-.165-.316-2.38z"></path>
   <path class="province border map-clickable" path-identifier="tibet"  d="M131.53 204.23l-1.98.95.403 1.086 2.483.538-.48 3.85-2.005 1.015.64 3.85 1.837.3-.52 1.857.993 3.665-1.705 2.73 2.762 4.55 1.35.514.533 1.73 3.712 2.4 1.173.15 3.144-1.92h1.407l1.478 2.505 3.544 2.256 1.79-.195.206 1.203 6.405.1 4.12 2.118 1.826-.544 3.075.912 3.85-1.88 2.912 2.364 1.003 1.614 1.61.165 1.357 1.44-.58 1.353 1.167 2.044 4.874.395 1.502-2.003 1.674 1.494 2.548.365-.51-2.354 4.26-1.112.858-1.78.01-2.32 2.203.544.692-.97 4 1.825 2.02 3.584-.224 1.64 3.75 4.403-2.296 1.76 2.862 4.017-.4.798 1.232 7.077-.567 2.488.995 4.004-2.107 3.77-1.518-1.438-.617 2.83.418 2.29-1.228 1.632-1.552-.99-1.508 1.955-2.09-2.097-2.554-1.563-1.818 2.98-1.698-1.384-1.223.334-2.18-2.402-2.153-.205 1.33-.918-2.014-3.616-1.274.66 1.157-2.364-1.593-.83-3.243.262-1.905 1.952-1.876.74-4.123-1.067-1.193-1.43-2.937 2.073.625.687-5.892 3.28-1.464.006-2.375 1.646-.507 1.19-3.578 2.416-.215 1.758-5.335 1.746-2.793-.303.162-1.452-1.766-.67-1.194-.945-1.614 1.107-2.753-.772-2.287-.16.92-1.49-2.958-1.16-2.96.582-3.638 2.843-1.727 2.228-.845 1.142-1.714 2.834-1.236-2.117.922-2.747-.296-1.396-1.69-1.028-4.02 2.265-2.387-.42-1.202.86-4.267-.115-1.418-1.154-3.575-1.315-.223 1.125-2.562-.288-.384-1.425-.828 2.483-.606.027-2.346-4.166-.663.78-4.326-.746.702-2.336-2.035.442-1.967-.64-3.694-2.883-1.03-3.11-1.76-.328-1.866 1.137-1.126-.293-2.898-4.062-2.658-.325-2.406-2.48-3.243-1.377-.457-2.462-4.06-.796-1.665.382-.976 2.852-1.498.416-.722-1.596-2.228-1.844-4.435-1.586.42-1.57-3.25-2.25-2.086.22-2.304-1.77-1.896-2.956-1.506 1.282-1.464-2.013.974-.934-1.208-1.565.6-1.86-2.338-2.56-.63-2.883 2.714-1.06 1.616 2.736 1.34-.155 3.274-2.66-1.16-3.023.362-2.02-3.31-1.42-1.566-2.38-.42-5.172 2.01-1.36-.157-1.214 2.02-.985 4.814.083 1.324-2.515-.592-2.335 2.387-3.33 1.167-2.562 1.362 1.052 4.022 1.11.67-.952 5.31 1.43 2.375-.74 3.477-3.712 4.145.157 1.328 2.623 3.806.52 5.305-.28 2.847-1.71 4.786-1.913 3.365.93 3.005-1.05 2.305-3.572 2.017-1.047 9.075-1.157 3.503-.96 3.75-.207 4.073 1.64 2.166.24z"></path>
   <path class="province border map-clickable" path-identifier="xinjiang" d="M142.44 88.38l-.963 4.598.867 3.303-2.38 3.163-.488 3.024 1.814 3.565 2.137-.135 4.31 1.6 2.828-.192 3.802.91 4.906-.09 3.668.623 3.284 3.203 2.185.215 1.17 1.63 5.7 2.937 2.798-.366-.423 3.19 1.49.313 3.252 8.618 3.15 3.144.588 2.34-2.633 2.476-.065 5.565-2.155 1.816-2.285-.29-3.54.74-3.898 2.223-4.653 5.233-3.54 5.57-2.377 1.274-2.815-.035-.18 3.794-1.2 3.275 1.433 3.795-.098 3.162-4.922 1.083-1.718 1.147-9.064 2.536-2.93.257-4.104 2.52 2.355 4.537-.024 2.25 5.203 2.996 1.746 4.866-3.918 1.052-.976 2.162 2.6 1.983 1.054 3.678-2.13 1.383-2.06-1.084-3.73-.183-1.24-1.25-.34 1.496-2.402.23-3.708-1.836-2.167-.24-4.074-1.64-3.747.21-3.504.958-9.076 1.158-2.017 1.047-2.305 3.572-3.005 1.048-3.364-.93-4.787 1.913-2.847 1.71-5.307.283-3.806-.52-1.328-2.623-4.147-.157-3.477 3.713-2.374.738-5.31-1.43-.67.953-4.024-1.11-1.362-1.052-1.168 2.563-2.386 3.33.59 2.334-1.324 2.515-4.813-.083-2.02.984-2.855-2.044-2.728-1.115-2.22-6.078.444-1.842-2.084-.426-3.164.26-5.188-1.773-1.686-1.056-.275-1.523-3.03.97-2.22-2.935.98-1.345-.307-2.354-1.52-2.29-3.102-.605-.482-1.718-6.604-1.082-1.305-1.073 2.766-1.755 1.395.684 2.22-1.74-2.223-2.044.598-1.736-1.424-3.25-.116-4.464-3.61-1.633-1.838.048-.654 1.41-1.89-.79-.93-2.637 1.08-1.456-1.743-2.546.247-2.244 2.4-1.53-.846-2.258 1.478-2.716 2.987-.48 2.743-2.41 1.276.054-.243-1.95 2.953.716 3.214-1.833.77 3.436 4.59-1.602.566 1.05 2.537-3.05 1.164-3.42 1.967-1.077 3.815.673 4.9-.622 1.275-1.445 1.05-2.224 7.71-4.475 3.618-1.01.78-1.34 2.767-.21.232-1.855.474-.534-1.047-4.257.714-1.867 2.67-1.202-1.522-1.445 3.427-1.114-1.184-2.22.57-1.49-3-7.285.087-6.28.982-.947-3.955-.67-1.09-1.267 1.66-1.33 6.47-1.243 7.227-2.453 1.72 2.245 2.813-.97 2.372.595.25-3-2.602-1.39 5.62-16.386.23-3.02 1.116-.205 6.163 2.848 6.19-.118.845 1.98 3.576-2.578 2.397-.217 1.403-3.996-1.266-6.497 2.19-5.964 3.334-.132 3.047-1.344 1.465-2.176-.14-3.558 1.306-1.45 3.563.268 4.022-1.005-.085 4.544 2.106 1.46-.988 1.027 5.08 3.16.128 1.606 3.795 2.677 4.05-.464 1.712 2.518 2.394-.673 2.45 2.686 1.013 4.224z"></path>
   <path class="province border map-clickable" path-identifier="hainan"  d="M305.69 356.503l-2.782 2.617-1.983 6.052-1.63.334-1.916 1.714-2.012.406-1.51 1.948-.99-1.028-2.264.01-3.818-1.868-.55-2.853-.006-3.792 4.435-3.896 1.09-1.71 1.317.762 2.073-1.535 2.214.91 1.36-1.403 1.846-.118 1.48.838.928-1.556 2.095 1.465z"></path>
   <path class="province border map-clickable" path-identifier="ningxia"  d="M278.318 186.133l-2.78 2.712-.646 2.97.387 2.387-5.237-1.16-1.157 4.854-.047 4.45 2.587.574 1.07 1.36-.255 2.906-1.51 1.125-2.443-.225.29 3.682-4.547-.72-1.804-2.78-2.084-.755-.928-1.78 1.043-3.247-1.84-4.45.827-.895-1.155-1.953-2.652-2.52-1.91-.317.556-1.67-2.702.11.544-1.002 4.238-.485 3.348-2.133 3.54-.542.434-7.96 2.22-5.76 1.543-1.776 3.977-.755 1.54 3.428-4.144 7.79 2.93 1.456 2.723.124 1.976 2.248z"></path>
   <path class="province border map-clickable" path-identifier="shaanxi"  d="M306.503 170.122l.937.788-1.876 3.23-1.16 5.72-2.79 2.654.03 2.563 1.862 1.966.374 2.098-1.01 2.87-2.412 4.003.927 3.038-.293 4.575 1.41 5.487-2.323 4-.8 3.952.804 1.842-.068 1.35 2.372 3.136-.2 2.785 3.057 2.757.052 3.252-1.81 1.643-1.678-1.438-2.556.87-4.692-1.053-1.686 1.13 2.483.664-.146 1.46 2.91.864.59 2.124-1.367.682-2.988-.375-1.208 2.284 1.464 3.006-.59 2.936-2.107.31-2.287-2.26-4.39-2.476-3.808-.28-.398.74-4.53-3.598-2.008.672-1.118-2.476-2.88-.286-3.948 1.415-1.408-1.18.375-1.42-4.36 1.256-.57-1.718 3.168-.687.214-2.492-1.59-1.514 2.902-2.24 3.968.184-1.103-2.946 1.058-3.767.976-1.027-2.906-1.967 1.894-2.775.122-2.162 2.86-.094 2.416 1.965 5.057-.846-1.305-2.51.58-.902 1.817.95 1.558-.672 2.756.18 1.017-1.204-1.012-4.906 1.502-1.25.217-3.578-2.835-1.9-2.57-.525-1.266-1.604-4.936-1.63.03-1.568-.388-2.387.646-2.97 2.78-2.712 2.213.7.9 1.576 5.923-.51.587-3.168.963.65.262-4.252 5.616-7.07 4.105-2.883 2.59-.94 1.173 1.363 1.697-2.324 2.244-1.223z"></path>
   <path class="province border map-clickable" path-identifier="shanxi"  d="M327.82 201.46l-.908 7.162-1.466 1.572-4.307 2.49-1.8-.705-1.277.908-3.817-.142-.166 1.884-1.704-.367-2.22 2.184-3.658.942-4.726 1.835-1.588-.32-.805-1.84.8-3.954 2.32-3.998-1.408-5.487.293-4.574-.927-3.037 2.412-4.002 1.01-2.87-.374-2.097-1.86-1.966-.032-2.563 2.79-2.655 1.16-5.72 1.876-3.23-.937-.788 1.9-.626 1.2-2.2 2.216.574 1.308-.963 1.45-3.366 2.45-3.02 2.467 1.214 2.123-1.938 2.19-.652.853 1.05 5.794-1.815.9-2.74 1.076 3.913 1.836.574-3.472 1.497-1.22 1.807 3.648 1.648 1.29 3.5-1.2 3.82-1.45 1.056-2.963-.035-.23 2.75-2.374 2.854.19 3.06 1.902.942 1.924 4.163.218 2.578-2.44 3.958.178 2.293-2.63 1.57.663 2.575z"></path>
   <path class="province border map-clickable" path-identifier="hubei"  d="M341.314 250.053l1.437 2.244.97-.33 2.998 2.178-2.19 2.86 1.456 2.297 1.643 6.2-2.38.473-1.23-1.15-1.787-.032-.566 1.435-4.334 1.758-.553 1.225-4.668 1.358-2.81 1.707-2.02-.54-.55-1.587 1.157-1.342-1.135-4.16-3.775 3.918-1.634-.303-.34-2.785-1.943 1.55-2.99.845-.524-1.242-3.667-2.356-2.888-.058-1.378-1-4.117-.607-2.275.775 1.045 2.285-1.874 1.14-2.104-1.272-2.62.475-.753 1.22-2.11.668-1.844 4.023-2.335-2.29-.396-2.718-2.115-2.06-.75 1.23.09-5.547-1.237-.796 2.362-1.65 5.913-.095 3.89-2.895 1.596.57.888-3.43-.544-2-3.066-1.56-1.132-1.694.59-2.936-1.464-3.006 1.207-2.285 2.988.374 1.366-.682-.59-2.124-2.91-.863.145-1.46-2.484-.665 1.686-1.13 4.692 1.05 2.555-.868 1.677 1.437 1.81-1.644 1.923 3.277 4.646 3.977 4.136 1.642 3.797.01 2.407-.73 3.933 1.242 1.646-1.185.532 4.31 1.45 2.17 1.404-.97 3.36 1.056-.063 1.58 3.68.913 1.06-1.12z"></path>
   <path class="province border map-clickable" path-identifier="hunan"  d="M329.3 272.275l.023 1.03 1.94 1.562-.7 2.086 1.386 1.443-2.535 3.593-1.467.365-1.426 3.608.31 2.046 2.048.204-.79 1.874 1.13 1.8-.227 2.65 1.8.715-1.305 3.71 1.933-.465-2.08 4.284.166 2.73-2.818 1.104-2.98-1.623-2.525 1.676.66 3.21-1.48.19-1.178-1.533-3.924-.356-.31 3.235-1.21.52-2.688-.396-1.226 1.23-.735-4.17-1.245-.374-1.99 2.07-.305-2.098 2.634-3.184 1.067-3.837-2.058-.28.47-2.93-2.487-1.003-.558 1.044-2.652-.6-.143 1.06-2.364 2.24-1.742-.528-.868-1.46-1.268 2.625-1.38-1.312-1.194.125-1.308-2.49.866-2.048-.886-1.736 1.843-1.198-.665-2.5-2.798-.03-1.187.986-1.296-.515 5.355-5.212-1.202-3.707.442-1.978-.783-2.234-.37-1.143.504-3.918-.556-.514 1.843-4.022 2.11-.667.754-1.22 2.62-.475 2.104 1.272 1.873-1.14-1.045-2.285 2.276-.775 4.117.608 1.378.998 2.887.06 3.666 2.355.525 1.242 2.99-.845 1.944-1.55.34 2.786 1.633.304 3.776-3.92 1.135 4.162-1.157 1.342.55 1.588z"></path>
   <path class="province border map-clickable" path-identifier="sichuan"  d="M260.69 235.685l.57 1.718 4.36-1.255-.374 1.42 1.408 1.18 3.948-1.416 2.88.286 1.117 2.476 2.008-.672 4.53 3.598.397-.74 3.81.28-2.046 2.165 1.9 1.75-.766 2.157-1.5.94-1.55 2.348-.847 3.33-3.445.483-.244 2.018-2.032 3.516-1.6 1.703-2.576-.015-1.46-2.663-2.444 1.143-.933-1.154-2.72-.766-1.913 2.607 1.483 1.086-.236 1.556-3.42 2.658.99 2.258 2.353 1.126.365 2.14 4.205 1.17.997 2.762-.358.86-2.893-2.544-.755 1.342-1.704.24-.267 2.26 1.97 1.726 1.778-.193 1.926 3.142-5.83 1.408-1.236-.938-1.493.573-.12-2.576-1.85-.808-1.292 1.728-2.39.51-1.872-1.07.566-1.278-1.478-2.28-.11-1.716 1.34-1.017-3.77.234-1.283.78.694 1.907-3.44 1.77.404 2.5-3.166 4.167-1.888 1.11.097 3.363 1.278 3.55-.87 1.744-2.314 1.087-.813-1.39-2.58 1.363-1.14 1.313-2.147.45-2.08-1.58.4-1.282-1.888-2.007.67-1.24-2.883-3.106.255-1.34-1.478-1.285-2.7-5.014-2.546 1.185-2.37-2.95.688-2.553-2.428-2.435-1.035-2.22-2.66 2.787-.094 3.324-1.786-2.352-.44-7.32-.996-4.005.568-2.49-1.232-7.075.4-.798-2.862-4.017 2.295-1.76-3.75-4.402.224-1.642-2.018-3.583-4-1.824-2.328-1.515-.57-1.91 1.14-2.896 1.828-2.07-2.725-2.01-.058-2.537 2.548-1.332.403 1.382 2.367-.934 3.454 1.178 1.535 1.61 1.684 4.903 3.045 1.714.524 1.087 3.34 1.385 1.32-2.75 2.435 2.385-.323 1.08 2.29-.848 1.66 2.977.587-2.248 1.856.51 2.193-.56.498-1.645-.554-2.632 2.294-1.05 1.62 1.053 1.094-3.93 1.19 1.21-.576 2.776 5.136-3.35-2.536-4.678 1.64-.337 3.345-2.942 2.763 1.042.523 3.413 3.057.15-.293.91 4.656.447 2.366 3.35-.835.53 1.023 2.037-.956 2.095 2.2 1.55 2.776.74 3.034-.288z"></path>
   <path class="province border map-clickable" path-identifier="yunnan"  d="M259.045 284.754l-.813 2.976-2.666.816-3.487-.344-.812-.864-1.388 1.56-2.148-1.092-2.57 2.885 1.485 1.103.067 3.463 1.91.574 1.085-1.25 2.256-.56 2.005 3.04-1.063.992-.377 2.18-1.573 3.32 1.868 1.418.25 1.147 1.735 1.08-1.946 4.683.484 3.046 1.253-.59 2.943.524.465 2.172 2.263 1.16.6-.703 2.184.854 1.903-.807 1.41 2.158-.536 2.93-2.286.19-2.667 3.168-1.708-1.8-.773.892-2.837.905-.38 2.124-3.77 2.05-1.212-1.172-1.547.937-.313 1.698-2.763-2.406-.792 1.33-1.96-1.232-2.618 3.1-1.175-1.306-3.287-1.592-.964 1.77-1.683 1.48-3.79-.43-1.112 1.925 2.332 5.3-.664 2.822.808.728-.432.53-2.23-.72-1.796.6-.95-3.318-.327-1.82-1.97.726-1.417 1.413-4.22.775-.333-1.942-1.6-.632-.065-2.853-.99.244-5.524-1.195 1.742-3.018-.407-2.208 1.512-2.768h-2.257l-2.92-1.083-.013-3.78-1.582-1.718-.002-1.54 1.653-1.576-2.29.626-3.294-.384-4.362 2.235-1.068-.664 1.56-1.632-.553-2.812-.982.076.136-2.82 1.934-.987-.57-.952.984-2.715.533.505 1.79-1.655.26-2.013 1.572.402 1.443-2.456 1.493-.37-1.2-2.06 1.716-4.73-.145-3.877-.533-1.165.055-3.693-2.197-.985-.944 1.36-1.532-4.026.064-1.58 1.51-1.956 1.55.99 1.23-1.633-.418-2.288.617-2.83 1.518 1.436 2.108-3.77.438 7.322 1.788 2.352.095-3.324 2.66-2.787 1.034 2.22 2.43 2.435-.688 2.553 2.37 2.95 2.545-1.184 2.7 5.013 1.48 1.284-.257 1.34 2.884 3.106-.67 1.24 1.886 2.01-.398 1.28 2.08 1.582 2.146-.45 1.14-1.315 2.58-1.364.814 1.392 2.315-1.086.87-1.743-1.28-3.552-.096-3.364 1.89-1.11 3.165-4.168-.404-2.498 3.44-1.77-.694-1.907 1.284-.778 3.77-.234-1.34 1.016.11 1.716 1.477 2.28-.565 1.28 1.873 1.07 2.39-.512 1.29-1.73 1.852.81z"></path>
   <path class="province border map-clickable" path-identifier="hebei"  d="M353.573 166.932l.434-1.22-1.383-2.248 3.916-.853.13 2.458-.834 2.586zm19.23-17.034l-2.378 2.728-.695 2.174 3.584 3.12 2.204-.1.58 3.547 1.76 2.377-2.57 1.017-1.6 1.863-.28 2.994-2.364 2.566-3.235.302-2.247 1.37-2.732-1.975-.953-3.656-2.236-.258-.96-4.247 2.03-.798-3.21-2.068-1.408-2.575 2.464-1.77-3.494-.165-3.12-2.836-1.77 1.603-2.055.444-1.736 1.662-2.175.605 1.772 2.636-.818 1.425-3.413 2.112 1.105 1.65-.808 1.744 2.388 1.423 3.71-.666 1.44 1.373 1.777-1.79 1.542.094.803 5.277-1.466.955-.013 2.007 4.576 2.733 2.222-.65 2.397 3.654-3.4 4.398-5.525.49-2.64 3.304-.575-1.463-.772 2.402-2.29.674-1.006 2.71-1.84 2.693-1.213.407-1.65 2.84 1.508 3.206-1.342.718-1.55-.986-1.738.657-2.815-.196-3.2-1.09-1.365-1.137-2.19.032-1.518-1.295-.662-2.575 2.63-1.57-.178-2.294 2.44-3.958-.22-2.58-1.923-4.162-1.9-.94-.192-3.062 2.373-2.854.23-2.75 2.964.033 1.45-1.055 1.2-3.82-1.29-3.5-3.65-1.647 1.22-1.806 3.473-1.497-1.836-.574-1.076-3.912-2.705-3.798 1.15-.64-.292-2.88 2.197-1.91.478-2.916 1.842-2.362 2.642-1.136.942 2.656-.256 3.578 2.75.264.712-1.24 4.455-2.5 1.463 1.392 2.773-2.294 1.814.944 2.11-1.05.236-4.144 4.29-.694.954-1.797 2.107.118 1.933 2.515-.285 1.777 1.18 2.198 1.094-.57.442 2.308-1.33 1.582 1.26 1.634.296 2.54 3.087-.12z"></path>
   <path class="province border map-clickable" path-identifier="henan"  d="M347.66 219.393l.044 1.184 1.994 1.703 1.234-.116.727 3.29-3.75 2.308-1.8-2.77-2.513-.476-.754 1.48.6 3.007-2.39.892.027 2.446-1.653 1.623-2.093.01.316 1.218 2.12.965.118 2.597 2.983 1.83 2.5-1.258.468 4.904-.22 2.213-3.018.56-1.286 3.054-2.004-1.695-1.06 1.12-3.68-.913.063-1.58-3.36-1.056-1.405.97-1.45-2.17-.532-4.31-1.645 1.184-3.933-1.243-2.408.73-3.798-.008-4.136-1.642-4.646-3.977-1.923-3.277-.052-3.252-3.057-2.758.2-2.784-2.372-3.137.068-1.35 1.588.32 4.726-1.836 3.66-.943 2.218-2.184 1.704.367.166-1.884 3.817.142 1.277-.91 1.8.707 4.306-2.49 1.466-1.573.907-7.163 2.19-.033 1.362 1.138 3.202 1.09 2.814.195 1.74-.657 1.55.988 1.34-.717-1.032 2.29.943.292 3.898-1.21-5.718 6.092-3.06 2.382-.143 1.615 2.778.718 2.08 1.636.918 2.006 4.433-.383z"></path>
   <path class="province border map-clickable" path-identifier="liaoning"  d="M423.29 156.61l-4.243 1.816-4.29 4.124-2.056 2.824-5.97.463-3.083 1.16-5.003 2.85-4.38 4.913-5.77 2.275-.287-2.262 4.54-1.52-.664-1.096 1.528-1.89-1.884.1-.922-1.55-1.736-.212 2.645-1.532-.093-2.003 2.758-1.38 3.495-5.465-2.064-2.622-5.615-2.09-1.515.19-5.144 5.594-.895 2.226-4.782 2.22-1.76-2.376-.58-3.547-2.204.1-3.584-3.12.695-2.174 2.378-2.728 1.296-2.166-.745-3.33.55-3.546-.986-1.007 2.59-1.986 3.818 5.627.048 1.678 4.83-4.97 3.318-1.1 2.732-2.65 2.264.512 3.256-2.963 2.077.937 1.445-2.37 2.054 1.21 3.293-.95.413-1.313 3.51-1.53.69-3.05.427-1.335 4.353 2.765 1.622 4.186 2.328-2.838 1.58 5.043 4.256 5.546-1.51 2.135.087 3.034 1.337 1.155 2.42 4.732-1.55 2.455 1.042.577z"></path>
   <path class="province border map-clickable" path-identifier="shandong"  d="M373.205 214.323l-3.376.402-.877 2.863-2.305.59-.703 2.434-1.842.44-.94-2.5-2.125.003-.136 1.236-2.484.508-1.08-1.123-1.265 1.372-.99-2.57-1.902-2.476-2.918.6-.758 2.57-1.844.722-.544-.49-4.433.383-.918-2.007-2.08-1.636-2.778-.718.142-1.616 3.06-2.38 5.718-6.093-3.9 1.21-.942-.293 1.033-2.29-1.508-3.205 1.65-2.84 1.213-.41 1.84-2.69 1.006-2.712 2.29-.674.773-2.403.576 1.464 2.638-3.303 5.525-.49 3.4-4.4 2.022 1.374 3.74.732 2.426-.874 3.394 4.974-1.784-.518-.53 4.542 3.828 1.642 2.69-.32.72-2.138 3.582-2.445.072-.694 3.524-1.742 5.196 2.306 1.773 1.916 2.826-.41 1.503-1.013.5 1.487 4.124.086-.484 2.227-1.794 1.91.22 1.385-3.238-1.164-8.222 4.028-1.347 2.156-1.828.554.434 1.807-2.803 1.042.066-1.524-1.995-.18.585 2.67-2.05 1.854-.272 1.373-2.093.408z"></path>
   <path class="province border map-clickable" path-identifier="tianjin"  d="M362.83 171.88l-2.06 1.096-1.744 5.17-2.222.65-4.576-2.734.012-2.007 1.466-.954-.803-5.275.67-.893 2.264.722.833-2.586-.13-2.457.962-1.756 3.208 2.068-2.028.797.96 4.246 2.236.258z"></path>
   <path class="province border map-clickable" path-identifier="jiangxi"  d="M364.18 269.08l-1.42 2.47 3.466 4.185.17 3.777-.64 1.75-4.445 1.502-.635 1.145-1.93-1.456-1.836 1.052-1.405 2.668.34 2.68-1.88 2.342-2.073.313-1.345 2.722.935 1.8-1.8 1.864-.62 3.023-1.534.805-1.277 4.667-1.11 1.41.366 2.504-1.054.79.316 2.38-.745.165-2.33-2.144-4.553 1.767-.998-.336-2.577 1.128-2.088-1.526 1.996-2.79 2.59-1.35-1.318-2.505-4.436 1.258-.805-1.63-.166-2.73 2.08-4.284-1.933.463 1.304-3.71-1.798-.716.226-2.648-1.13-1.802.792-1.874-2.048-.205-.31-2.047 1.426-3.608 1.467-.366 2.534-3.594-1.388-1.443.7-2.086-1.94-1.562-.023-1.03 2.81-1.707 4.666-1.357.554-1.224 4.333-1.758.566-1.435 1.787.032 1.23 1.15 2.38-.472 2.818-.903 1.29-1.564 1.93 1.228-1.73 2 .405 1.456 2.894-1.478-.098-1.226 2.77.088.987 1.964 3.744.472z"></path>
   <path class="province border map-clickable" path-identifier="jiangsu"  d="M390.028 249.35l-1.258.32-1.01 2.904-1.616.17.36 1.183-3.415 2.36-1.057-1.665-1.902-.042-1.605-1.97-2.467.162-2.293-1.46-4.35.57-.53-1.26.892-2.578-3.13-1.563-1.02-1.503 1.325-2.438 1.11-.37.143-2.08-.948-1.174 2.772-.206 1.544 1.45.97-1.43-.35-2.18-2.442-1.497-1.12 2.334-2.62.012-1.308-1.874-.17-2.496-2.338-.54 2-4.476-.434-.72-3.24.374-.84-2.757-4.817-1.45-.69-2.31-1.2-.106-3.47-2.373.757-2.57 2.92-.598 1.9 2.475.99 2.57 1.267-1.37 1.078 1.12 2.484-.506.136-1.235 2.126-.002.94 2.5 1.84-.44.704-2.434 2.305-.59.876-2.865 3.375-.402-.72 3.568 1.262-.62 2.402 2.285 5.03 2.362 1.85 6.517 3.363 6.218-.26 3.328 4.29 2.77.44 2.613 3.092 1.56.817 1.903-.855.61-4.334-1.92-2.52.734-1.363-2.003-2.613-.577-1.826 1.288-2.245-.646-1.417-2.873-1.03-.06.757 1.983 1.808 1.58 1.825.398 1.84-1.082 2.408.415-.016 1.693 3.233 1.13z"></path>
   <path class="province border map-clickable" path-identifier="shanghai"  d="M390.028 249.35l3.137 2.003 2.06 3.496-5.737 2.125-2.398-1.338-.586-1.71-.36-1.182 1.615-.17 1.01-2.904zm4.67.332l-2.787-.7-3.226-2.444.716-.546 5.846 2.886z"></path>
   <path class="province border map-clickable" path-identifier="zhejiang"  d="M396.826 262.55l.98 1.588-2.312-.627-.293-1.392zm-10.322-8.623l.586 1.71 2.398 1.338-2.425 1.403-.312 1.15-2.078 1.42 1.697.964 2.097-1.474 1.86.007 2.45 3.064 2.493 1.67-2.277 2.36 1.728-.646.223 4.17-2.372.12-1.032-.885-1.014 1.6 1.794-.063.396 2.687-1.305 1.567 1.193 2.953-2.13.512-.223 1.13-1.503-2.04-1.786 3.66-3.01 3.845-.642 3.39-.805-.044-.614-1.59-4.687.585-1.785-3.3-2.333 2.306-2.83-.485-.24-2.26-1.155-2.317-.105-3.267-2.358.346-.17-3.776-3.468-4.185 1.42-2.47 1.62-.42 2.86-2.605 1.39-2.376-.104-3.228 2.99.187 1.184-.605-1.232-1.728 1.646-.838 1.076-1.975.448-2.722 2.467-.164 1.605 1.97 1.903.042 1.056 1.665z"></path>
   <path class="province border map-clickable" path-identifier="jilin"  d="M470.95 125.63l.228 1-2.355 5.944-1.82-.19-2.958 1.45 1.01 2.275-.643-.213-2.7-4.807-2.202.223-1.212 5.77-2.965-.033-1.053 2.49-2.677 2.087-6.928.403.044 1.252 2.146 3.24-1.28 2.257-1.182-1.03-2.964.446-3.015-.818-2.2-2.698-3.116.94-1.446 3.463-3.474 4.76-2.54.54-1.043-.577 1.55-2.455-2.42-4.73-1.336-1.157-.088-3.032 1.512-2.135-4.257-5.544-1.58-5.042-2.328 2.838-1.622-4.186-4.353-2.765-.428 1.335-2.597-1.12 1.175-2.747-3.456-9.49-5.897 3.558-2.7-5.432-.286-4.88 1.822-1.955-2.447-4.692-2.326-.595 2.83-2.806 1.99 1.956 1.295-1.592 2.53 2.744.737-4.39 2.962-1.542 6.49-.835.533 6.21 2.897 3.563 8.148.686 2.65-1.323 1.154 3.222 2.53 1.084 3.337-1.224 3.212 1.304 1.012 2.313-.803 1.243.546 2.618 2.696-.58 1.502.86-.542 1.864 2.913 4.045 1.653-.794-.075-2.45 2.578-1.84.713 3.97 3.567 6.768 2.826-.588.166-2.007 4.107-.996 1.31-1.673 1.557 1.997 1.44-1.35 1.094 3.342 3.456 2.478z"></path>
   <path class="province border map-clickable" path-identifier="inner_mongolia"  d="M390.62 4.016l3.157 4-5.113 5.79 6.89 4.176 1.272-2.628 4.91 3.736-1.122 1.398.627 5.203 1.975 4.144 5.008 2.38 2.422-1.43 3.955.454 3.836-1.14 2.506-3.276 2.93 1.423 4.652 6.875-2.468 2.922.453 2.474-2.184 1.997-2.267 3.842.023 8.435-.89 3.597-2.403-.303-2.66 7.494-.455 5.65-2.028-5.146-8.386 8.777-5.236 3.426-1.307 2.408 1.378 2.41 5.003 4.42 1.577-1.628 1.905.68-1.764 2.897-3.21.14-.124 2.128 1.41 2.206-2.963 1.54-.738 4.392-2.53-2.744-1.296 1.592-1.99-1.957-2.83 2.805 2.327.596 2.446 4.693-1.823 1.955.287 4.88 2.7 5.433 5.895-3.557 3.455 9.49-1.175 2.747 2.597 1.12-.688 3.05-3.513 1.53-.413 1.313-3.293.95-2.052-1.21-1.445 2.37-2.077-.937-3.257 2.964-2.264-.514-2.732 2.652-3.318 1.1-4.83 4.97-.048-1.677-3.817-5.626-2.59 1.985.983 1.006-.548 3.547.743 3.33-1.296 2.165-4.107-.803-3.087.12-.295-2.54-1.26-1.635 1.33-1.582-.444-2.31-1.094.572-1.18-2.198.284-1.777-1.933-2.514-2.107-.117-.955 1.797-4.288.694-.237 4.143-2.11 1.05-1.813-.943-2.773 2.294-1.462-1.39-4.456 2.497-.712 1.24-2.75-.263.256-3.578-.943-2.656-2.64 1.136-1.843 2.362-.478 2.915-2.198 1.912.293 2.88-1.15.64 2.704 3.8-.9 2.737-5.794 1.814-.85-1.05-2.193.652-2.123 1.938-2.466-1.215-2.45 3.02-1.45 3.367-1.31.963-2.214-.574-1.202 2.2-1.9.625.087-2.067-2.245 1.223-1.697 2.324-1.173-1.364-2.59.94-4.104 2.885-5.615 7.07-.262 4.252-.963-.65-.587 3.168-5.925.51-.897-1.578-2.212-.7-2.066-.71-1.976-2.248-2.722-.123-2.93-1.456 4.144-7.79-1.54-3.427-3.977.755-1.54 1.777-2.222 5.76-.434 7.958-3.54.542-3.348 2.133-4.238.485-.545 1-2.04-.622-3.51-3.228-1.963-.696-.41-2.688 1.09-.393-.41-3.078 2.637-1.616 3.08-3.862.435-1.378-1.34-3.55-2.543.026-3.8 1.393-2.6 1.83-4.672-1.242-4.634 1.82 1.68 1.944-1.635 1.983-4.25-.827-1.066-2.64-2.678-1.546-.154-2.242-2.365-.304-2.895-3.027-4.104-1.924-2.084-.03 3.825-3.477 2.484-4.42-1.572-3.01-6.97.647-2.71 1.183-1.467 1.71-3.356.28.748-3.382-3.07-2.856-2.473-3.647 1.627-1.786-5.357-12.87 5.383.712 13.262 1.763 1.204-.37 3.225-.876 9.81 1.626 3.42.16 3.237 3.654 8.485 1.98 5.287 2.73 6.365-1.26-.024 2.243 4.22.76 2.12-1.74 4.85-2.61 7.342-3.228 10.465-1.685 6.1.45 5.62-.563 1.487-1.103 6.036-2.44 4.303-5.797 5.417-2.647 2.744-1.954-.772-2.74-3.612-4.64 2.793-7.112 2.01-1.396 3.728.402 1.412 1.657 4.006 1.318 4.328.554 3.43-2.24 2.97-3.015.937-2.136 3.308.136 5.707-.82 4.344-3.09.354-2.33 3.01-4.59 1.818-1.005 4.06.39.75-2.623 2.47.702 4.425-2.416 3.933.46.786-.97 4.087 1.744 2.965.24 1.83-1.397-.092-2.343-1.576-3.043-3.413-3.073-1.62-2.982-2.58-1.148-1.838-2.557-2.938-.755-3.6.617-3.108 3.972-4.144-2.687-4.975.112-3.194 1.912-2.373-2.768-.387-2.306 2.407-1.86-.073-3.153 7.216-16.147 3.048 1.9 5.725 2.017 3.346-2 3.882-3.58 3.652-.407 1.833-1.35.3-3.225-1.728-.398 2.9-4.632.174-2.168 1.88-2.316 2.94-7.608 3.74-3.17 1.737-2.815-1.248-3.055.798-2.617-2.4-1.262-3.05.478-.19-2.155 2.017-1.422 4.85-5.63z"></path>
   <path class="province border map-clickable" path-identifier="heilongjiang"  d="M465.825 61.832l-.75 2.954 2.357 3.72-1.14 3.47 2.783 4.48 3.225-.732 1.3.9 7.732-.474 1.224-2.956 3.407-1.906 3.035.21 2.103-1.9 5.43-1.676 2.568 1.47-1.09 2.707 1.676 4.01-2.35 3.396-2.7 2.076-1.27 7.417-1.218 1.868.434 2.618-1.756 1.382-2.14 6.582-2.327 1.69-.202 3.623-1.323 1.14-8.03-2.423-1.24-1.148-3.253 4.327-3.97 1.35 1.082 1.837 1.622 7.17-.77 3.095.675 3.518-3.394.224-3.455-2.478-1.092-3.34-1.442 1.348-1.556-1.997-1.31 1.672-4.11.995-.164 2.007-2.826.59-3.567-6.77-.712-3.968-2.577 1.84.074 2.45-1.653.793-2.912-4.045.542-1.864-1.503-.86-2.694.58-.545-2.618.804-1.243-1.012-2.313-3.21-1.303-3.34 1.224-2.528-1.085-1.154-3.222-2.65 1.32-8.148-.684-2.897-3.563-.533-6.21-6.49.836-1.41-2.205.123-2.126 3.21-.14 1.764-2.898-1.905-.68-1.577 1.628-5.003-4.42-1.378-2.41 1.307-2.408 5.237-3.427 8.387-8.778 2.027 5.147.455-5.652 2.66-7.494 2.4.303.893-3.597-.024-8.435 2.265-3.842 2.183-1.997-.452-2.474 2.468-2.922-4.65-6.875-2.932-1.423-2.506 3.277-3.836 1.138-3.955-.454-2.422 1.43-5.008-2.38-1.974-4.143-.626-5.202 1.122-1.398-4.91-3.736-1.27 2.628-6.892-4.176 5.113-5.79-3.16-4 4.996-1.54 2.553-.842 4.26.238 6.16-1.228 5.05 2.493 1.433 1.994 5.87.398 4.95 3.058 6.51 11.135-.694 2.26 1.87 5.202 1.852 2.457.243 4.396 2.904 4.05.354 5.43 2.022 1.376-.573 5.06 2.635 2.884 2.135.658 5.75-.39-.38 1.108 2.757 1.662 3.384-.736 3.356 4.64 2.742 2.176z"></path>
</svg>