<svg xmlns="http://www.w3.org/2000/svg" xmlns:xlink="http://www.w3.org/1999/xlink" width="1664.8" height="1208.6">
<path id="c" fill="#2b87ff" d="m391.26,0c-43,0-77.8,34.8-77.8,77.9 0,21.1 8.4,40.3 22.2,54.4-42.4,0.7-76.5,35.3-76.5,77.8 0,43 34.9,77.9 77.9,77.9 14,0 27.1-3.8 38.5-10.3l0,8c-0.3,39.6-32.5,71.5-72.1,71.5-39.6,0-71.8-31.9-72.1-71.5l-26.6,0c-0.3,39.6-32.4,71.5-72.1,71.5-39.6,0-71.81-31.9-72.14-71.5l0-11.8c9.06,4.1 19.08,6.5 29.64,6.5 39.4,0 71.4-32 71.4-71.5 0-39.1-31.5-70.9-70.7-71.4 12.6-12.9 20.4-30.5 20.4-49.8 0-39.6-32.06-71.5-71.46-71.5-14.68,0-28.34,4.4-39.68,12l-0.12,0.1 22.22,244.4 11.25,123.8 0,157.8 716.39,0 0-157.8 32.5-368.7c-11.2-7.3-24.6-11.6-39-11.6-39.5,0-71.4,31.9-71.4,71.5 0,19.3 7.7,36.9 20.4,49.9-38.9,0.6-70.1,32.4-70.1,71.3 0,39.5 32,71.5 71.4,71.5 10.1,0 19.7-2.2 28.4-6l0,11.3c-0.3,39.6-32.5,71.5-72.2,71.5-39.6,0-71.8-31.9-72.1-71.5l-26.8,0c-0.3,39.6-32.5,71.5-72.1,71.5-39.6,0-71.8-31.9-72.1-71.5l0-8.5c11.6,6.8 25,10.8 39.4,10.8 43,0 77.9-34.9 77.9-77.9 0-42.7-34.4-77.4-77.1-77.9 13.7-14 22.2-33.2 22.2-54.3 0-43.1-34.9-77.9-77.9-77.9z"/>
<use x="882.4" y="0" xlink:href="#c"/>
<use x="441.2" y="654.3" xlink:href="#c"/>
</svg>
