<svg version="1.1" id="Layer_1" xmlns="http://www.w3.org/2000/svg" xmlns:xlink="http://www.w3.org/1999/xlink" x="0px" y="0px"
	 viewBox="0 0 512 512" style="enable-background:new 0 0 512 512;" xml:space="preserve" fill="#2b87ff">
<polygon points="355.846,236.958 328.634,219.117 272.269,305.092 272.269,207.734 239.731,207.734 
	239.731,359.582 269.606,368.502 "/>
<g>
	<polygon points="183.629,218.981 156.385,236.77 242.377,368.477 256,359.582 256,329.822 	"/>
	<path d="M196.346,385.78c10.079,22.893,32.996,38.88,59.654,38.88s49.575-15.986,59.654-38.878
		l-59.656-26.169L196.346,385.78z"/>
</g>
<path d="M256,87.341c-105.7,0-197.337,60.197-242.482,148.169l113.277,67.424
	c21.835-49.669,71.469-84.354,129.206-84.354l10.846-63.451L256,87.341z"/>
<path d="M256,87.341v131.24c57.736,0,107.37,34.684,129.206,84.352l113.277-67.424
	C453.337,147.536,361.7,87.341,256,87.341z"/>
<polygon points="498.928,235.28 255.999,341.845 255.999,377.377 512,265.078 "/>
<polygon points="13.072,235.281 0,265.078 255.999,377.377 255.999,341.845 "/>
<g>
</g>
<g>
</g>
<g>
</g>
<g>
</g>
<g>
</g>
<g>
</g>
<g>
</g>
<g>
</g>
<g>
</g>
<g>
</g>
<g>
</g>
<g>
</g>
<g>
</g>
<g>
</g>
<g>
</g>
</svg>
