<svg version="1.1" id="Layer_1" xmlns="http://www.w3.org/2000/svg" xmlns:xlink="http://www.w3.org/1999/xlink" x="0px" y="0px"
	 viewBox="0 0 495 495" xml:space="preserve" fill="#2b87ff">
<g>
	<polygon points="266.46,52.27 267.5,55.372 267.5,0 227.5,0 227.5,55.372 228.54,52.27 	"/>
	<path d="M247.5,52.27v304h37.669v-61.761c-12.869-12.6-19.959-29.439-19.959-47.439
		c0-18.21,7.23-35.2,20.36-47.83l22.755-22.107L267.5,55.372l-1.04-3.102H247.5z"/>
	<path d="M229.79,247.07c0,18-7.09,34.839-19.959,47.439v61.761H247.5v-304h-18.96l-1.04,3.102
		l-40.825,121.761l22.755,22.107C222.56,211.87,229.79,228.86,229.79,247.07z"/>
	<polygon points="115.651,132.646 115.651,92.18 75.651,92.18 75.651,132.644 95.65,113.21 	"/>
	<path d="M95.65,262.93h3.315c-1.25-5.126-1.905-10.439-1.905-15.86c0-18.21,7.23-35.2,20.37-47.83
		l25.998-25.257v-14.345l-27.776-26.992L95.65,113.21V262.93z"/>
	<path d="M95.65,113.21l-19.999,19.434L46.45,161.02c-14.05,13.51-21.79,31.68-21.79,51.17
		c0,19.24,7.58,37.26,21.35,50.74h49.64V113.21z"/>
	<polygon points="163.43,154.55 183.428,173.978 183.428,133.518 143.428,133.518 143.428,173.983 	"/>
	<rect x="117.024" y="294.51" width="92.806" height="61.76"/>
	<path d="M163.43,294.51h46.4c12.87-12.601,19.96-29.44,19.96-47.44c0-18.21-7.23-35.2-20.36-47.83
		l-22.755-22.107l-3.247-3.155L163.43,154.55V294.51z"/>
	<path d="M163.43,294.51V154.55l-20.002,19.433L117.43,199.24c-13.14,12.63-20.37,29.62-20.37,47.83
		c0,5.421,0.655,10.733,1.905,15.86c2.901,11.896,9.061,22.775,18.055,31.58H163.43z"/>
	<path d="M396.035,262.93c-2.901,11.896-9.061,22.775-18.055,31.58c-0.004,0-0.004,61.76-0.004,61.76h71.011
		v-93.34H396.035z"/>
	<polygon points="419.349,132.644 419.349,92.18 379.349,92.18 379.349,132.646 399.35,113.21 	"/>
	<path d="M377.57,199.24c13.14,12.63,20.37,29.62,20.37,47.83c0,5.421-0.655,10.733-1.905,15.86h3.315V113.21
		l-20.001,19.436l-27.776,26.992v14.345L377.57,199.24z"/>
	<path d="M399.35,262.93h49.64c13.77-13.48,21.35-31.5,21.35-50.74c0-19.49-7.74-37.66-21.79-51.17
		l-29.201-28.376L399.35,113.21V262.93z"/>
	<polygon points="351.572,173.983 351.572,133.518 311.572,133.518 311.572,173.978 331.57,154.55 	"/>
	<rect x="285.169" y="294.51" width="92.807" height="61.76"/>
	<path d="M265.21,247.07c0,18,7.09,34.839,19.959,47.439c0.001,0.001,46.401,0.001,46.401,0.001V154.55
		l-19.998,19.428l-3.247,3.155L285.57,199.24C272.44,211.87,265.21,228.86,265.21,247.07z"/>
	<path d="M377.98,294.51c8.994-8.805,15.153-19.685,18.055-31.58c1.25-5.126,1.905-10.439,1.905-15.86
		c0-18.21-7.23-35.2-20.37-47.83l-25.998-25.257L331.57,154.55v139.96H377.98z"/>
	<polygon points="247.5,356.27 247.5,495 277,495 277,425.329 317,425.329 317,495 376,495 376,425.329
		416,425.329 416,495 475,495 475,356.27 	"/>
	<path d="M247.5,356.27H117.024v-61.76c-8.998-8.805-15.158-19.685-18.059-31.58H46.014v93.34H20V495h59
		v-69.671h40V495h59v-69.671h40V495h29.5V356.27z"/>
	<rect x="79" y="425.329" width="40" height="69.671"/>
	<rect x="178" y="425.329" width="40" height="69.671"/>
	<rect x="277" y="425.329" width="40" height="69.671"/>
	<rect x="376" y="425.329" width="40" height="69.671"/>
</g>
<g>
</g>
<g>
</g>
<g>
</g>
<g>
</g>
<g>
</g>
<g>
</g>
<g>
</g>
<g>
</g>
<g>
</g>
<g>
</g>
<g>
</g>
<g>
</g>
<g>
</g>
<g>
</g>
<g>
</g>
</svg>
