<svg version="1.1" id="Capa_1" xmlns="http://www.w3.org/2000/svg" xmlns:xlink="http://www.w3.org/1999/xlink" x="0px" y="0px"
	 viewBox="0 0 18.511 18.511" style="enable-background:new 0 0 18.511 18.511;" xml:space="preserve" fill="#2b87ff">
<g>
	<path d="M10.776,8.048c-0.003-0.16-0.003-0.254-0.003-0.254s0-0.603-0.484-1.082l0.744-0.828l1.029,1.09
		l5.1-5.588l-1.166-1.047l0.1-0.111c0,0,0-0.153-0.068-0.198c-0.066-0.046-0.244-0.025-0.244-0.025s-4.568,5-5.857,6.42
		C9.755,6.31,9.587,6.232,9.445,6.18H8.808C8.586,6.264,8.299,6.409,8.037,6.643l-0.125-0.1l0.834-1.204
		c0,0-6.243-4.842-6.186-4.916C2.519,0.469,1.738,1.236,1.473,1.501L1.385,1.428l-0.36,0.384l6.69,5.213
		C7.481,7.421,7.479,7.794,7.479,7.794s-0.002,0.27-0.016,0.688l-0.809-0.83l-4.996,5.682L2.85,14.36l-0.058,0.067
		c0,0,0.004,0.156,0.071,0.199c0.068,0.043,0.245,0.016,0.245,0.016s2.498-2.834,4.288-4.871c-0.029,0.39-0.068,0.793-0.121,1.172
		c-0.222,1.609-0.74,5.265-0.956,6.8H4.284v0.768h9.956v-0.768h-2.307c-0.217-1.535-0.735-5.189-0.957-6.8
		c-0.021-0.161-0.043-0.331-0.061-0.502c1.773,1.273,5.25,3.783,5.209,3.841c0.041-0.048,0.797-0.845,1.053-1.113l0.076,0.055
		l0.232-0.271L10.776,8.048z M8.675,11.707h1.167v1.688H8.675V11.707z"/>
</g>
<g>
</g>
<g>
</g>
<g>
</g>
<g>
</g>
<g>
</g>
<g>
</g>
<g>
</g>
<g>
</g>
<g>
</g>
<g>
</g>
<g>
</g>
<g>
</g>
<g>
</g>
<g>
</g>
<g>
</g>
</svg>
