<?xml version="1.0" encoding="utf-8"?>
<!-- Svg Vector Icons : http://www.onlinewebfonts.com/icon -->
<!DOCTYPE svg PUBLIC "-//W3C//DTD SVG 1.1//EN" "http://www.w3.org/Graphics/SVG/1.1/DTD/svg11.dtd">
<svg version="1.1" xmlns="http://www.w3.org/2000/svg" xmlns:xlink="http://www.w3.org/1999/xlink" x="0px" y="0px" viewBox="0 0 1000 1000" enable-background="new 0 0 1000 1000" xml:space="preserve" fill="#2b87ff">
<metadata> Svg Vector Icons : http://www.onlinewebfonts.com/icon </metadata>
<g><g transform="translate(0.000000,511.000000) scale(0.100000,-0.100000)"><path d="M4199.6,4981.5c-743.4-83.3-1543.8-309.2-2032.8-574.5l-149.1-78.9v-392.5c0-342.1,4.4-399.1,41.7-473.7c48.2-92.1,131.6-155.7,232.4-177.6l65.8-13.2l6.6-177.6l6.6-175.4l-83.3-13.1c-96.5-17.5-195.2-100.9-239-203.9c-26.3-61.4-30.7-646.9-30.7-3642.4c0-3563.4,0-3567.8,46-3659.9c24.1-52.6,76.8-116.2,120.6-140.4l74.6-48.2H5000h2738.9l76.7,46.1c43.9,26.3,96.5,87.7,120.6,142.5c46,92.1,46,96.5,46,3659.9c0,2975.8-4.4,3581-30.7,3640.2c-39.5,92.1-120.6,166.7-225.9,201.7l-83.3,28.5V3100v171l65.8,13.2c98.7,21.9,173.3,76.7,225.9,173.2c43.8,78.9,48.2,114,48.2,480.2v396.9l-247.8,120.6c-447.4,219.3-1072.3,401.3-1721.4,497.8C5609.6,5014.4,4620.6,5029.8,4199.6,4981.5z M5109.6,4621.9c61.4-61.4,59.2-184.2-6.6-250l-52.6-52.6l111.9-13.2c153.5-17.5,368.4-127.2,462.7-236.8c74.6-87.7,76.7-96.5,76.7-274.1v-182h-168.8h-171L5182,3793l-182,182l-182-182l-179.8-179.8h-171h-168.9v182c0,177.6,2.2,186.4,76.8,274.1c94.3,109.6,309.2,219.3,462.7,236.8l111.8,13.2l-52.6,52.6c-105.3,105.3-41.7,293.8,103.1,293.8C5037.3,4665.7,5085.5,4646,5109.6,4621.9z M4122.8,1508V806.3h-526.3h-526.3V1508v701.7h526.3h526.3V1508z M5526.3,1508V806.3H5000h-526.3V1508v701.7H5000h526.3V1508z M6929.7,1508V806.3h-526.3h-526.3V1508v701.7h526.3h526.3V1508z M4122.8-246.3v-701.7h-526.3h-526.3v701.7v701.7h526.3h526.3V-246.3z M5526.3-246.3v-701.7H5000h-526.3v701.7v701.7H5000h526.3V-246.3z M6929.7-246.3v-701.7h-526.3h-526.3v701.7v701.7h526.3h526.3V-246.3z M4122.8-2000.6v-701.7h-526.3h-526.3v701.7v701.7h526.3h526.3V-2000.6z M5526.3-2000.6v-701.7H5000h-526.3v701.7v701.7H5000h526.3V-2000.6z M6929.7-2000.6v-701.7h-526.3h-526.3v701.7v701.7h526.3h526.3V-2000.6z"/></g></g>
</svg>