<svg
   xmlns:dc="http://purl.org/dc/elements/1.1/"
   xmlns:cc="http://creativecommons.org/ns#"
   xmlns:rdf="http://www.w3.org/1999/02/22-rdf-syntax-ns#"
   xmlns:svg="http://www.w3.org/2000/svg"
   xmlns="http://www.w3.org/2000/svg"
   xmlns:sodipodi="http://sodipodi.sourceforge.net/DTD/sodipodi-0.dtd"
   xmlns:inkscape="http://www.inkscape.org/namespaces/inkscape"
   id="svg2"
   sodipodi:version="0.32"
   inkscape:version="0.46"
   width="1296"
   height="1221"
   version="1.0"
   sodipodi:docname="Toro de Osborne.svg"
   inkscape:output_extension="org.inkscape.output.svg.inkscape"
   fill="#2b87ff">
  <metadata
     id="metadata7">
    <rdf:RDF>
      <cc:Work
         rdf:about="">
        <dc:format>image/svg+xml</dc:format>
        <dc:type
           rdf:resource="http://purl.org/dc/dcmitype/StillImage" />
      </cc:Work>
    </rdf:RDF>
  </metadata>
  <defs
     id="defs5">
    <inkscape:perspective
       sodipodi:type="inkscape:persp3d"
       inkscape:vp_x="0 : 526.18109 : 1"
       inkscape:vp_y="0 : 1000 : 0"
       inkscape:vp_z="744.09448 : 526.18109 : 1"
       inkscape:persp3d-origin="372.04724 : 350.78739 : 1"
       id="perspective9" />
    <inkscape:perspective
       id="perspective2429"
       inkscape:persp3d-origin="372.04724 : 350.78739 : 1"
       inkscape:vp_z="744.09448 : 526.18109 : 1"
       inkscape:vp_y="0 : 1000 : 0"
       inkscape:vp_x="0 : 526.18109 : 1"
       sodipodi:type="inkscape:persp3d" />
  </defs>
  <sodipodi:namedview
     inkscape:window-height="719"
     inkscape:window-width="1024"
     inkscape:pageshadow="2"
     inkscape:pageopacity="0.0"
     guidetolerance="10.0"
     gridtolerance="10.0"
     objecttolerance="10.0"
     borderopacity="1.0"
     bordercolor="#666666"
     pagecolor="#ffffff"
     id="base"
     showgrid="false"
     inkscape:zoom="0.41441441"
     inkscape:cx="648"
     inkscape:cy="610.5"
     inkscape:window-x="-4"
     inkscape:window-y="-4"
     inkscape:current-layer="svg2" />
  <path
     d="M 268.75418,1219.25 C 269.14247,1218.2875 271.19251,1212.213 273.30982,1205.7512 C 281.04349,1182.1486 285.04938,1161.876 287.75344,1132.656 L 289.40476,1114.812 L 288.25014,1103.656 C 285.8961,1080.9111 279.24196,1049.9831 271.65009,1026.5 C 262.76941,999.0303 257.8011,974.71809 256.22131,950.99999 L 255.32211,937.49999 L 252.88591,925.97439 C 250.32268,913.84789 239.27408,874.67489 236.25236,866.99999 C 235.27793,864.52499 232.34661,857.99999 229.73834,852.49999 C 214.75333,820.90149 194.81506,756.26554 187.63215,715.99995 L 185.04552,701.49995 L 184.52674,682.91802 L 184.00797,664.33609 L 185.18717,650.91802 C 185.83573,643.53808 187.2558,631.42512 188.3429,624.00032 C 189.42999,616.57552 190.59867,606.56665 190.93997,601.75838 L 191.56052,593.01607 L 189.34735,580.75801 C 188.1301,574.01608 184.24298,553.42495 180.7093,534.99995 C 170.42694,481.38652 165.50583,449.35743 161.58051,410.49995 L 159.76218,392.49995 L 159.94709,341.00369 L 160.132,289.50742 L 160.71562,286.39647 L 161.29923,283.28552 L 139.53071,283.39273 L 117.76218,283.49995 L 111.76218,282.18582 C 102.42559,280.1409 93.40452,277.03781 85.76218,273.24228 L 78.76218,269.76576 L 72.26218,264.94922 C 68.68718,262.30012 63.40106,257.72756 60.51524,254.78797 L 55.2683,249.44325 L 62.75051,245.00687 L 70.23272,240.57049 L 69.49745,239.9094 C 69.09305,239.5458 65.0375,238.02642 60.48512,236.53299 L 52.20806,233.81768 L 59.0305,229.02647 L 65.85295,224.23526 L 71.15142,218.8676 L 76.44989,213.49995 L 79.28419,208.58753 L 82.11849,203.67511 L 75.13176,201.32236 C 61.90941,196.86978 48.00677,188.80447 36.07537,178.66465 L 29.38855,172.98191 L 22.8275,164.78161 L 16.26645,156.58131 L 11.21551,146.54063 L 6.16458,136.49995 L 3.63263,127.49995 L 1.10068,118.49995 L 0.55034,104.44994 L 0,90.399917 L 1.7061,81.949927 L 3.4122,73.499947 L 5.98093,66.999947 L 8.5496498,60.499947 L 13.0351,53.499947 L 17.52055,46.499947 L 24.89297,39.228707 L 32.26539,31.957467 L 40.01379,26.882097 C 49.70552,20.533807 64.95164,13.147327 76.98712,8.969187 L 86.21205,5.766727 L 87.78024,6.368497 L 89.34843,6.970267 L 88.35907,8.818897 L 87.36972,10.667527 L 79.09056,15.478047 L 70.8114,20.288567 L 62.27176,28.894257 L 53.73213,37.499947 L 50.48594,43.999947 L 47.23975,50.499947 L 45.67318,57.999947 L 44.10661,65.499947 L 44.78897,71.983167 L 45.47132,78.466387 L 47.46775,84.983167 L 49.46418,91.499947 L 53.89399,100.11358 L 58.32379,108.72721 L 63.78274,114.75954 L 69.24169,120.79187 L 74.72187,124.42941 L 80.20204,128.06694 L 86.98211,130.62446 L 93.76218,133.18198 L 100.76218,134.49509 C 104.61218,135.21731 111.37387,136.11426 115.78815,136.48833 L 123.81412,137.16845 L 137.28815,132.21098 C 153.13227,126.3815 163.8506,123.57593 178.26218,121.48583 L 188.76218,119.96303 L 208.26218,119.35414 L 227.76218,118.74526 L 245.76218,119.91647 C 267.24885,121.31455 281.85382,123.25194 292.44009,126.10842 L 300.23722,128.21232 L 309.4997,126.50237 C 314.59406,125.56191 322.81218,124.15289 327.76218,123.37123 L 336.76218,121.95002 L 351.26218,121.33397 L 365.76218,120.71791 L 377.76218,121.93295 C 393.37695,123.514 411.80452,127.10848 428.97848,131.92321 C 436.55952,134.04856 445.14683,136.28529 448.0614,136.89372 L 453.36062,137.99995 L 464.6013,137.99995 L 475.84198,137.99995 L 481.80208,136.4695 C 485.08014,135.62775 490.09867,133.80738 492.95437,132.42423 L 498.14657,129.90942 L 503.03169,125.51727 L 507.91681,121.12513 L 511.12331,115.10913 C 512.88688,111.80033 515.02068,106.93466 515.86509,104.29654 L 517.40037,99.49995 L 517.9436,87.999947 L 518.48683,76.499947 L 516.35627,67.499947 L 514.22571,58.499947 L 509.26089,48.456387 L 504.29607,38.412827 L 497.52912,29.990827 L 490.76218,21.568817 L 484.04618,15.941827 L 477.33017,10.314837 L 471.23992,7.068767 L 465.14967,3.822697 L 465.46424,2.161317 L 465.77881,0.499947 L 469.47208,0.192467 L 473.16534,-0.115013 L 483.62389,3.384637 L 494.08245,6.884287 L 501.42231,10.550677 C 505.45924,12.567187 512.36218,16.598167 516.76218,19.508417 L 524.76218,24.799777 L 531.51398,30.990097 L 538.26578,37.180427 L 544.78725,45.331257 L 551.30872,53.482087 L 555.73524,62.052647 L 560.16177,70.623217 L 562.69222,79.355277 L 565.22267,88.087337 L 565.87577,95.918497 L 566.52886,103.74966 L 565.34183,112.12481 C 564.68896,116.73114 563.0453,124.77495 561.68924,129.99995 L 559.22368,139.49995 L 554.27071,149.5217 L 549.31774,159.54345 L 543.7339,166.313 L 538.15005,173.08256 L 531.16322,178.79126 L 524.17639,184.49995 L 515.21,189.63373 L 506.2436,194.76751 L 495.37231,198.82594 L 484.50101,202.88437 L 469.33585,206.64589 L 454.17069,210.40742 L 459.96643,212.05456 C 472.81718,215.70672 490.03911,224.04812 504.26218,233.50909 L 513.76218,239.82835 L 517.70321,243.90195 L 521.64424,247.97554 L 520.03217,251.3561 L 518.4201,254.73665 L 514.09114,258.27213 C 508.34828,262.96234 496.42224,270.26767 481.99437,277.93309 L 470.22656,284.18524 L 482.38635,291.15175 C 501.30214,301.98886 516.67137,312.89382 537.76218,330.44265 L 549.76218,340.42737 L 572.84993,363.46366 C 585.54819,376.13362 601.6239,392.85606 608.57372,400.62464 L 621.20978,414.74932 L 625.48598,415.81309 C 638.27171,418.99371 664.53858,422.17028 693.76218,424.07003 L 710.76218,425.17515 L 768.76218,425.52925 L 826.76218,425.88335 L 850.76218,426.91357 C 863.96218,427.4802 884.27097,427.95643 895.89281,427.97187 L 917.02345,427.99995 L 941.89281,425.5256 C 996.95621,420.04713 1045.6541,416.65028 1093.7621,414.93217 L 1124.7621,413.82505 L 1144.7621,414.47039 C 1155.7621,414.82533 1169.4484,415.53526 1175.1761,416.04801 L 1185.59,416.98029 L 1189.9273,419.07991 L 1194.2645,421.17953 L 1197.2401,424.7894 L 1200.2156,428.39926 L 1202.6845,435.74217 L 1205.1533,443.08509 L 1209.7403,448.1869 C 1212.2631,450.9929 1216.7841,456.98117 1219.787,461.49416 L 1225.2467,469.69961 L 1229.7469,479.1996 L 1234.2471,488.69959 L 1237.7698,499.45367 L 1241.2926,510.20776 L 1243.7693,522.43984 C 1245.1315,529.16749 1247.0111,540.70823 1247.9463,548.08594 L 1249.6465,561.49995 L 1249.7043,595.49995 L 1249.7621,629.49995 L 1248.3761,648.10036 L 1246.9902,666.70076 L 1251.0512,676.60036 C 1253.2848,682.04513 1258.8005,695.04995 1263.3083,705.49995 C 1284.1812,753.88752 1292.2647,780.22342 1295.3469,809.88099 L 1296.5297,821.26209 L 1295.967,840.88099 L 1295.4044,860.49999 L 1293.3912,872.99999 C 1292.284,879.87499 1289.0748,895.39999 1286.2597,907.49999 C 1275.9724,951.71799 1273.2934,963.77699 1270.7089,977.49999 L 1268.0722,991.49999 L 1267.5294,1005.7465 L 1266.9866,1019.993 L 1268.2345,1027.729 L 1269.4825,1035.465 L 1272.4826,1043.9651 C 1275.7355,1053.1812 1279.8657,1061.236 1287.4217,1073.0999 L 1292.2621,1080.6998 L 1292.2621,1082.3499 L 1292.2621,1084 L 1290.5121,1083.9763 C 1287.7655,1083.939 1278.2724,1079.7579 1271.2072,1075.4736 L 1264.7621,1071.5653 L 1256.202,1063.3231 L 1247.6419,1055.081 L 1242.003,1047.2492 C 1235.2423,1037.8595 1228.6679,1025.5728 1224.2117,1014 C 1222.4116,1009.325 1220.6358,1005.1468 1220.2656,1004.7151 L 1219.5924,1003.9303 L 1215.4509,1015.2151 C 1203.0105,1049.1128 1195.1676,1084.0748 1192.2053,1118.8393 L 1190.9834,1133.1785 L 1191.535,1151.3393 L 1192.0866,1169.5 L 1193.7563,1180.368 L 1195.426,1191.2361 L 1194.3718,1192.2903 L 1193.3176,1193.3445 L 1187.7868,1192.342 C 1184.7448,1191.7906 1182.0323,1191.5631 1181.759,1191.8364 C 1181.4857,1192.1097 1181.2589,1195.7458 1181.255,1199.9167 C 1181.2511,1204.0875 1180.961,1210.5375 1180.6104,1214.25 L 1179.9729,1221 L 1142.5972,1221 L 1105.2215,1221 L 1107.1342,1217.25 C 1108.1862,1215.1875 1112.4497,1205.988 1116.6087,1196.8067 C 1133.1033,1160.3934 1139.2271,1138.1282 1142.4093,1103 L 1143.6323,1089.5 L 1143.6462,1060.5 L 1143.66,1031.5 L 1141.9342,1018.6185 C 1136.4022,977.32969 1124.1859,935.25179 1109.3088,906.24439 L 1105.3369,898.49999 L 1106.0495,901.99999 L 1106.7621,905.49999 L 1106.7579,915.99999 L 1106.7537,926.49999 L 1105.039,932.04669 L 1103.3244,937.59349 L 1099.3567,943.73229 L 1095.389,949.87109 L 1089.5875,954.42449 L 1083.7861,958.97779 L 1077.3878,961.53919 L 1070.9895,964.10069 L 1064.7604,964.68229 L 1058.5313,965.26399 L 1053.1467,963.99619 C 1050.1852,963.29889 1046.0299,961.85759 1043.9127,960.79319 L 1040.0633,958.85789 L 1035.592,954.73639 L 1031.1208,950.61499 L 1028.5754,946.27169 C 1027.1755,943.88279 1025.1723,939.17209 1024.1238,935.80329 L 1022.2175,929.67829 L 1021.6161,921.08919 L 1021.0147,912.49999 L 1022.6898,901.13469 L 1024.365,889.76949 L 1023.8233,889.22779 L 1023.2816,888.68619 L 1015.9036,892.33259 L 1008.5255,895.97899 L 997.0541,906.93369 L 985.58261,917.88829 L 981.9632,923.19409 L 978.3438,928.49999 L 973.91006,940.49999 L 969.47633,952.49999 L 968.24706,959.93879 L 967.01778,967.37759 L 967.7081,975.88539 L 968.39842,984.39319 L 971.26662,995.51719 C 972.84414,1001.6354 974.88014,1008.504 975.79109,1010.7806 L 977.44734,1014.92 L 970.23694,1023.669 C 946.40208,1052.5896 924.64948,1094.4865 908.6236,1142.3401 L 903.31884,1158.1802 L 898.74877,1176.8401 C 896.23523,1187.1031 893.63499,1197.3 892.97044,1199.5 L 891.76218,1203.5 L 889.66209,1203.7999 L 887.56199,1204.0998 L 884.01209,1200.5499 L 880.46218,1197 L 879.01434,1197 L 877.5665,1197 L 875.31143,1207.75 C 874.07115,1213.6625 872.8918,1219.0625 872.69066,1219.75 L 872.32495,1221 L 832.79356,1221 L 793.26218,1221 L 793.26218,1220.4527 C 793.26218,1220.1517 798.22609,1210.1392 804.29309,1198.2027 L 815.32399,1176.5 L 820.4854,1173.5 L 825.6468,1170.5 L 839.32408,1157 L 853.00135,1143.5 L 858.51284,1135 C 861.54417,1130.325 866.07146,1122.409 868.57349,1117.4089 L 873.12265,1108.3178 L 876.59309,1098.3475 L 880.06354,1088.3771 L 882.26096,1077.9386 L 884.45838,1067.5 L 884.99148,1052.5 L 885.52459,1037.5 L 884.38908,1028.9975 L 883.25357,1020.495 L 878.1986,1002.9975 C 869.7817,973.86279 863.79494,944.23439 860.75485,916.66869 L 859.22947,902.83739 L 857.72014,899.91869 C 856.04014,896.66989 855.06266,896.33049 853.34534,898.39979 L 852.1836,899.79959 L 846.47289,902.05459 C 843.332,903.29479 835.88291,906.77479 829.91937,909.78779 L 819.07656,915.26599 L 810.91937,921.31359 C 806.43291,924.63969 800.50016,929.50009 797.73546,932.11439 L 792.70874,936.86769 L 792.73546,929.13459 L 792.76218,921.40149 L 788.98132,913.74879 L 785.20046,906.09609 L 780.50473,901.40039 L 775.809,896.70469 L 769.02669,893.45429 L 762.24438,890.20399 L 753.8781,889.01639 L 745.51182,887.82879 L 729.637,889.41159 C 720.90585,890.28209 702.51218,892.76389 688.76218,894.92669 C 661.3439,899.23949 648.20933,900.75849 629.26218,901.80769 L 616.76218,902.49999 L 615.00001,912.99999 C 611.39191,934.49909 605.96611,961.02609 601.69281,978.05959 L 597.2875,995.61919 L 592.16033,1010.5596 C 583.35826,1036.2085 580.36388,1049.8678 576.60784,1081.5044 L 574.82749,1096.5 L 574.85897,1123.5 L 574.89045,1150.5 L 576.59002,1170 C 577.52479,1180.725 578.55851,1190.9625 578.88718,1192.75 L 579.48476,1196 L 573.82508,1196 L 568.16541,1196 L 568.85992,1208.5 L 569.55443,1221 L 533.4083,1221 L 497.26218,1221 L 497.26218,1220.1053 C 497.26218,1219.6133 498.13552,1216.3508 499.20294,1212.8553 C 504.71946,1194.7906 513.70452,1150.4613 516.90888,1125.5 L 518.7061,1111.5 L 518.72356,1084.5 L 518.74102,1057.5 L 516.91505,1043.5 C 515.91076,1035.8 513.52785,1020.725 511.61969,1010 C 509.71153,999.275 507.31202,985.77499 506.28746,979.99999 L 504.42461,969.49999 L 503.26311,954.49999 L 502.10162,939.49999 L 502.29467,920.99999 C 502.40085,910.82499 502.43697,901.93749 502.37495,901.24999 L 502.26218,899.99999 L 499.70232,899.99999 L 497.14246,899.99999 L 491.95232,904.86539 C 477.92472,918.01559 455.70691,933.20899 441.13688,939.61499 L 433.17576,943.11529 L 425.59607,944.76019 L 418.01638,946.40499 L 410.30616,944.81069 L 402.59595,943.21639 L 396.96611,940.55309 C 389.49029,937.01649 377.42764,928.29079 366.72223,918.67589 L 358.01081,910.85179 L 353.62639,908.72169 L 349.24196,906.59159 L 347.8063,908.04579 L 346.37063,909.49999 L 345.32047,923.49999 C 344.74289,931.19999 344.26848,942.51479 344.26625,948.64399 L 344.26218,959.78799 L 345.31924,970.08879 C 345.90063,975.75429 347.01897,983.11449 347.80446,986.44479 L 349.23262,992.49999 L 349.2474,998.6197 L 349.26218,1004.7395 L 347.27533,1010.9588 C 342.7724,1025.0542 339.65082,1047.1301 338.64399,1072 L 338.01649,1087.5 L 339.1767,1103.9838 C 340.67365,1125.2518 342.51012,1139.261 346.71654,1161.5 C 348.58909,1171.4 350.67193,1183.4435 351.34507,1188.2633 L 352.56897,1197.0265 L 351.95388,1197.6416 L 351.33879,1198.2567 L 346.67885,1197.0833 C 344.11588,1196.438 341.8474,1196.0814 341.63779,1196.2911 C 341.42818,1196.5007 342.38292,1201.7641 343.75943,1207.9876 C 345.13594,1214.211 346.26218,1219.6848 346.26218,1220.1515 L 346.26218,1221 L 307.15519,1221 L 268.0482,1221 L 268.75418,1219.25 z M 1223.8904,911.54279 C 1224.7987,908.76919 1228.3596,900.42499 1231.8034,892.99999 C 1241.4283,872.24859 1248.1266,851.15259 1252.9183,826.49999 L 1254.6676,817.49999 L 1254.6725,799.99999 L 1254.6774,782.49999 L 1252.9023,773.99995 C 1249.4682,757.55653 1243.0227,739.83136 1234.5387,723.49995 L 1232.4608,719.49995 L 1231.9352,723.99995 C 1231.6462,726.47495 1230.471,735.63307 1229.3238,744.35133 L 1227.2378,760.20272 L 1219.8155,789.35129 C 1212.1186,819.57829 1208.7094,835.37889 1205.6507,854.99999 L 1203.858,866.49999 L 1203.8819,882.49999 L 1203.9058,898.49999 L 1206.5143,906.99999 C 1207.9489,911.67499 1211.028,920.40749 1213.3568,926.40569 L 1217.5908,937.31139 L 1219.9149,926.94849 C 1221.1931,921.24889 1222.9821,914.31639 1223.8904,911.54279 z"
     id="path2435" />
</svg>
